<?xml version="1.0" encoding="utf-8" standalone="no"?>
<!DOCTYPE svg PUBLIC "-//W3C//DTD SVG 1.1//EN"
  "http://www.w3.org/Graphics/SVG/1.1/DTD/svg11.dtd">
<svg xmlns:xlink="http://www.w3.org/1999/xlink" width="460.8pt" height="345.6pt" viewBox="0 0 460.8 345.6" xmlns="http://www.w3.org/2000/svg" version="1.1">
 <metadata>
  <rdf:RDF xmlns:dc="http://purl.org/dc/elements/1.1/" xmlns:cc="http://creativecommons.org/ns#" xmlns:rdf="http://www.w3.org/1999/02/22-rdf-syntax-ns#">
   <cc:Work>
    <dc:type rdf:resource="http://purl.org/dc/dcmitype/StillImage"/>
    <dc:date>2022-03-30T18:46:32.956259</dc:date>
    <dc:format>image/svg+xml</dc:format>
    <dc:creator>
     <cc:Agent>
      <dc:title>Matplotlib v3.5.1, https://matplotlib.org/</dc:title>
     </cc:Agent>
    </dc:creator>
   </cc:Work>
  </rdf:RDF>
 </metadata>
 <defs>
  <style type="text/css">*{stroke-linejoin: round; stroke-linecap: butt}</style>
 </defs>
 <g id="figure_1">
  <g id="patch_1">
   <path d="M 0 345.6 
L 460.8 345.6 
L 460.8 0 
L 0 0 
z
" style="fill: #ffffff"/>
  </g>
  <g id="axes_1">
   <g id="patch_2">
    <path d="M 57.6 307.584 
L 414.72 307.584 
L 414.72 41.472 
L 57.6 41.472 
z
" style="fill: #ffffff"/>
   </g>
   <g id="patch_3">
    <path d="M 73.832727 307.584 
L 74.79041 307.584 
L 74.79041 160.855579 
L 73.832727 160.855579 
z
" clip-path="url(#p969689ebda)" style="fill: #1f77b4"/>
   </g>
   <g id="patch_4">
    <path d="M 78.621142 307.584 
L 79.578825 307.584 
L 79.578825 67.482947 
L 78.621142 67.482947 
z
" clip-path="url(#p969689ebda)" style="fill: #1f77b4"/>
   </g>
   <g id="patch_5">
    <path d="M 83.409558 307.584 
L 84.367241 307.584 
L 84.367241 120.838737 
L 83.409558 120.838737 
z
" clip-path="url(#p969689ebda)" style="fill: #1f77b4"/>
   </g>
   <g id="patch_6">
    <path d="M 88.197973 307.584 
L 89.155656 307.584 
L 89.155656 174.194526 
L 88.197973 174.194526 
z
" clip-path="url(#p969689ebda)" style="fill: #1f77b4"/>
   </g>
   <g id="patch_7">
    <path d="M 92.986388 307.584 
L 93.944071 307.584 
L 93.944071 227.550316 
L 92.986388 227.550316 
z
" clip-path="url(#p969689ebda)" style="fill: #1f77b4"/>
   </g>
   <g id="patch_8">
    <path d="M 97.774803 307.584 
L 98.732486 307.584 
L 98.732486 240.889263 
L 97.774803 240.889263 
z
" clip-path="url(#p969689ebda)" style="fill: #1f77b4"/>
   </g>
   <g id="patch_9">
    <path d="M 102.563218 307.584 
L 103.520901 307.584 
L 103.520901 280.906105 
L 102.563218 280.906105 
z
" clip-path="url(#p969689ebda)" style="fill: #1f77b4"/>
   </g>
   <g id="patch_10">
    <path d="M 107.351633 307.584 
L 108.309316 307.584 
L 108.309316 307.584 
L 107.351633 307.584 
z
" clip-path="url(#p969689ebda)" style="fill: #1f77b4"/>
   </g>
   <g id="patch_11">
    <path d="M 112.140048 307.584 
L 113.097731 307.584 
L 113.097731 307.584 
L 112.140048 307.584 
z
" clip-path="url(#p969689ebda)" style="fill: #1f77b4"/>
   </g>
   <g id="patch_12">
    <path d="M 116.928463 307.584 
L 117.886146 307.584 
L 117.886146 307.584 
L 116.928463 307.584 
z
" clip-path="url(#p969689ebda)" style="fill: #1f77b4"/>
   </g>
   <g id="patch_13">
    <path d="M 121.716879 307.584 
L 122.674562 307.584 
L 122.674562 307.584 
L 121.716879 307.584 
z
" clip-path="url(#p969689ebda)" style="fill: #1f77b4"/>
   </g>
   <g id="patch_14">
    <path d="M 126.505294 307.584 
L 127.462977 307.584 
L 127.462977 307.584 
L 126.505294 307.584 
z
" clip-path="url(#p969689ebda)" style="fill: #1f77b4"/>
   </g>
   <g id="patch_15">
    <path d="M 131.293709 307.584 
L 132.251392 307.584 
L 132.251392 307.584 
L 131.293709 307.584 
z
" clip-path="url(#p969689ebda)" style="fill: #1f77b4"/>
   </g>
   <g id="patch_16">
    <path d="M 136.082124 307.584 
L 137.039807 307.584 
L 137.039807 307.584 
L 136.082124 307.584 
z
" clip-path="url(#p969689ebda)" style="fill: #1f77b4"/>
   </g>
   <g id="patch_17">
    <path d="M 140.870539 307.584 
L 141.828222 307.584 
L 141.828222 307.584 
L 140.870539 307.584 
z
" clip-path="url(#p969689ebda)" style="fill: #1f77b4"/>
   </g>
   <g id="patch_18">
    <path d="M 145.658954 307.584 
L 146.616637 307.584 
L 146.616637 307.584 
L 145.658954 307.584 
z
" clip-path="url(#p969689ebda)" style="fill: #1f77b4"/>
   </g>
   <g id="patch_19">
    <path d="M 150.447369 307.584 
L 151.405052 307.584 
L 151.405052 307.584 
L 150.447369 307.584 
z
" clip-path="url(#p969689ebda)" style="fill: #1f77b4"/>
   </g>
   <g id="patch_20">
    <path d="M 155.235784 307.584 
L 156.193467 307.584 
L 156.193467 307.584 
L 155.235784 307.584 
z
" clip-path="url(#p969689ebda)" style="fill: #1f77b4"/>
   </g>
   <g id="patch_21">
    <path d="M 160.0242 307.584 
L 160.981883 307.584 
L 160.981883 307.584 
L 160.0242 307.584 
z
" clip-path="url(#p969689ebda)" style="fill: #1f77b4"/>
   </g>
   <g id="patch_22">
    <path d="M 164.812615 307.584 
L 165.770298 307.584 
L 165.770298 307.584 
L 164.812615 307.584 
z
" clip-path="url(#p969689ebda)" style="fill: #1f77b4"/>
   </g>
   <g id="patch_23">
    <path d="M 169.60103 307.584 
L 170.558713 307.584 
L 170.558713 307.584 
L 169.60103 307.584 
z
" clip-path="url(#p969689ebda)" style="fill: #1f77b4"/>
   </g>
   <g id="patch_24">
    <path d="M 174.389445 307.584 
L 175.347128 307.584 
L 175.347128 307.584 
L 174.389445 307.584 
z
" clip-path="url(#p969689ebda)" style="fill: #1f77b4"/>
   </g>
   <g id="patch_25">
    <path d="M 179.17786 307.584 
L 180.135543 307.584 
L 180.135543 307.584 
L 179.17786 307.584 
z
" clip-path="url(#p969689ebda)" style="fill: #1f77b4"/>
   </g>
   <g id="patch_26">
    <path d="M 183.966275 307.584 
L 184.923958 307.584 
L 184.923958 307.584 
L 183.966275 307.584 
z
" clip-path="url(#p969689ebda)" style="fill: #1f77b4"/>
   </g>
   <g id="patch_27">
    <path d="M 188.75469 307.584 
L 189.712373 307.584 
L 189.712373 307.584 
L 188.75469 307.584 
z
" clip-path="url(#p969689ebda)" style="fill: #1f77b4"/>
   </g>
   <g id="patch_28">
    <path d="M 193.543105 307.584 
L 194.500788 307.584 
L 194.500788 307.584 
L 193.543105 307.584 
z
" clip-path="url(#p969689ebda)" style="fill: #1f77b4"/>
   </g>
   <g id="patch_29">
    <path d="M 198.331521 307.584 
L 199.289204 307.584 
L 199.289204 307.584 
L 198.331521 307.584 
z
" clip-path="url(#p969689ebda)" style="fill: #1f77b4"/>
   </g>
   <g id="patch_30">
    <path d="M 203.119936 307.584 
L 204.077619 307.584 
L 204.077619 307.584 
L 203.119936 307.584 
z
" clip-path="url(#p969689ebda)" style="fill: #1f77b4"/>
   </g>
   <g id="patch_31">
    <path d="M 207.908351 307.584 
L 208.866034 307.584 
L 208.866034 307.584 
L 207.908351 307.584 
z
" clip-path="url(#p969689ebda)" style="fill: #1f77b4"/>
   </g>
   <g id="patch_32">
    <path d="M 212.696766 307.584 
L 213.654449 307.584 
L 213.654449 307.584 
L 212.696766 307.584 
z
" clip-path="url(#p969689ebda)" style="fill: #1f77b4"/>
   </g>
   <g id="patch_33">
    <path d="M 217.485181 307.584 
L 218.442864 307.584 
L 218.442864 307.584 
L 217.485181 307.584 
z
" clip-path="url(#p969689ebda)" style="fill: #1f77b4"/>
   </g>
   <g id="patch_34">
    <path d="M 222.273596 307.584 
L 223.231279 307.584 
L 223.231279 307.584 
L 222.273596 307.584 
z
" clip-path="url(#p969689ebda)" style="fill: #1f77b4"/>
   </g>
   <g id="patch_35">
    <path d="M 227.062011 307.584 
L 228.019694 307.584 
L 228.019694 307.584 
L 227.062011 307.584 
z
" clip-path="url(#p969689ebda)" style="fill: #1f77b4"/>
   </g>
   <g id="patch_36">
    <path d="M 231.850426 307.584 
L 232.808109 307.584 
L 232.808109 307.584 
L 231.850426 307.584 
z
" clip-path="url(#p969689ebda)" style="fill: #1f77b4"/>
   </g>
   <g id="patch_37">
    <path d="M 236.638842 307.584 
L 237.596525 307.584 
L 237.596525 307.584 
L 236.638842 307.584 
z
" clip-path="url(#p969689ebda)" style="fill: #1f77b4"/>
   </g>
   <g id="patch_38">
    <path d="M 241.427257 307.584 
L 242.38494 307.584 
L 242.38494 307.584 
L 241.427257 307.584 
z
" clip-path="url(#p969689ebda)" style="fill: #1f77b4"/>
   </g>
   <g id="patch_39">
    <path d="M 246.215672 307.584 
L 247.173355 307.584 
L 247.173355 307.584 
L 246.215672 307.584 
z
" clip-path="url(#p969689ebda)" style="fill: #1f77b4"/>
   </g>
   <g id="patch_40">
    <path d="M 251.004087 307.584 
L 251.96177 307.584 
L 251.96177 307.584 
L 251.004087 307.584 
z
" clip-path="url(#p969689ebda)" style="fill: #1f77b4"/>
   </g>
   <g id="patch_41">
    <path d="M 255.792502 307.584 
L 256.750185 307.584 
L 256.750185 307.584 
L 255.792502 307.584 
z
" clip-path="url(#p969689ebda)" style="fill: #1f77b4"/>
   </g>
   <g id="patch_42">
    <path d="M 260.580917 307.584 
L 261.5386 307.584 
L 261.5386 307.584 
L 260.580917 307.584 
z
" clip-path="url(#p969689ebda)" style="fill: #1f77b4"/>
   </g>
   <g id="patch_43">
    <path d="M 265.369332 307.584 
L 266.327015 307.584 
L 266.327015 307.584 
L 265.369332 307.584 
z
" clip-path="url(#p969689ebda)" style="fill: #1f77b4"/>
   </g>
   <g id="patch_44">
    <path d="M 270.157747 307.584 
L 271.11543 307.584 
L 271.11543 307.584 
L 270.157747 307.584 
z
" clip-path="url(#p969689ebda)" style="fill: #1f77b4"/>
   </g>
   <g id="patch_45">
    <path d="M 274.946163 307.584 
L 275.903846 307.584 
L 275.903846 307.584 
L 274.946163 307.584 
z
" clip-path="url(#p969689ebda)" style="fill: #1f77b4"/>
   </g>
   <g id="patch_46">
    <path d="M 279.734578 307.584 
L 280.692261 307.584 
L 280.692261 307.584 
L 279.734578 307.584 
z
" clip-path="url(#p969689ebda)" style="fill: #1f77b4"/>
   </g>
   <g id="patch_47">
    <path d="M 284.522993 307.584 
L 285.480676 307.584 
L 285.480676 307.584 
L 284.522993 307.584 
z
" clip-path="url(#p969689ebda)" style="fill: #1f77b4"/>
   </g>
   <g id="patch_48">
    <path d="M 289.311408 307.584 
L 290.269091 307.584 
L 290.269091 307.584 
L 289.311408 307.584 
z
" clip-path="url(#p969689ebda)" style="fill: #1f77b4"/>
   </g>
   <g id="patch_49">
    <path d="M 294.099823 307.584 
L 295.057506 307.584 
L 295.057506 307.584 
L 294.099823 307.584 
z
" clip-path="url(#p969689ebda)" style="fill: #1f77b4"/>
   </g>
   <g id="patch_50">
    <path d="M 298.888238 307.584 
L 299.845921 307.584 
L 299.845921 307.584 
L 298.888238 307.584 
z
" clip-path="url(#p969689ebda)" style="fill: #1f77b4"/>
   </g>
   <g id="patch_51">
    <path d="M 303.676653 307.584 
L 304.634336 307.584 
L 304.634336 307.584 
L 303.676653 307.584 
z
" clip-path="url(#p969689ebda)" style="fill: #1f77b4"/>
   </g>
   <g id="patch_52">
    <path d="M 308.465068 307.584 
L 309.422751 307.584 
L 309.422751 307.584 
L 308.465068 307.584 
z
" clip-path="url(#p969689ebda)" style="fill: #1f77b4"/>
   </g>
   <g id="patch_53">
    <path d="M 313.253484 307.584 
L 314.211167 307.584 
L 314.211167 307.584 
L 313.253484 307.584 
z
" clip-path="url(#p969689ebda)" style="fill: #1f77b4"/>
   </g>
   <g id="patch_54">
    <path d="M 318.041899 307.584 
L 318.999582 307.584 
L 318.999582 307.584 
L 318.041899 307.584 
z
" clip-path="url(#p969689ebda)" style="fill: #1f77b4"/>
   </g>
   <g id="patch_55">
    <path d="M 322.830314 307.584 
L 323.787997 307.584 
L 323.787997 307.584 
L 322.830314 307.584 
z
" clip-path="url(#p969689ebda)" style="fill: #1f77b4"/>
   </g>
   <g id="patch_56">
    <path d="M 327.618729 307.584 
L 328.576412 307.584 
L 328.576412 307.584 
L 327.618729 307.584 
z
" clip-path="url(#p969689ebda)" style="fill: #1f77b4"/>
   </g>
   <g id="patch_57">
    <path d="M 332.407144 307.584 
L 333.364827 307.584 
L 333.364827 307.584 
L 332.407144 307.584 
z
" clip-path="url(#p969689ebda)" style="fill: #1f77b4"/>
   </g>
   <g id="patch_58">
    <path d="M 337.195559 307.584 
L 338.153242 307.584 
L 338.153242 307.584 
L 337.195559 307.584 
z
" clip-path="url(#p969689ebda)" style="fill: #1f77b4"/>
   </g>
   <g id="patch_59">
    <path d="M 341.983974 307.584 
L 342.941657 307.584 
L 342.941657 307.584 
L 341.983974 307.584 
z
" clip-path="url(#p969689ebda)" style="fill: #1f77b4"/>
   </g>
   <g id="patch_60">
    <path d="M 346.772389 307.584 
L 347.730072 307.584 
L 347.730072 307.584 
L 346.772389 307.584 
z
" clip-path="url(#p969689ebda)" style="fill: #1f77b4"/>
   </g>
   <g id="patch_61">
    <path d="M 351.560805 307.584 
L 352.518488 307.584 
L 352.518488 307.584 
L 351.560805 307.584 
z
" clip-path="url(#p969689ebda)" style="fill: #1f77b4"/>
   </g>
   <g id="patch_62">
    <path d="M 356.34922 307.584 
L 357.306903 307.584 
L 357.306903 307.584 
L 356.34922 307.584 
z
" clip-path="url(#p969689ebda)" style="fill: #1f77b4"/>
   </g>
   <g id="patch_63">
    <path d="M 361.137635 307.584 
L 362.095318 307.584 
L 362.095318 307.584 
L 361.137635 307.584 
z
" clip-path="url(#p969689ebda)" style="fill: #1f77b4"/>
   </g>
   <g id="patch_64">
    <path d="M 365.92605 307.584 
L 366.883733 307.584 
L 366.883733 307.584 
L 365.92605 307.584 
z
" clip-path="url(#p969689ebda)" style="fill: #1f77b4"/>
   </g>
   <g id="patch_65">
    <path d="M 370.714465 307.584 
L 371.672148 307.584 
L 371.672148 307.584 
L 370.714465 307.584 
z
" clip-path="url(#p969689ebda)" style="fill: #1f77b4"/>
   </g>
   <g id="patch_66">
    <path d="M 375.50288 307.584 
L 376.460563 307.584 
L 376.460563 307.584 
L 375.50288 307.584 
z
" clip-path="url(#p969689ebda)" style="fill: #1f77b4"/>
   </g>
   <g id="patch_67">
    <path d="M 380.291295 307.584 
L 381.248978 307.584 
L 381.248978 307.584 
L 380.291295 307.584 
z
" clip-path="url(#p969689ebda)" style="fill: #1f77b4"/>
   </g>
   <g id="patch_68">
    <path d="M 385.07971 307.584 
L 386.037393 307.584 
L 386.037393 307.584 
L 385.07971 307.584 
z
" clip-path="url(#p969689ebda)" style="fill: #1f77b4"/>
   </g>
   <g id="patch_69">
    <path d="M 389.868126 307.584 
L 390.825809 307.584 
L 390.825809 307.584 
L 389.868126 307.584 
z
" clip-path="url(#p969689ebda)" style="fill: #1f77b4"/>
   </g>
   <g id="patch_70">
    <path d="M 394.656541 307.584 
L 395.614224 307.584 
L 395.614224 307.584 
L 394.656541 307.584 
z
" clip-path="url(#p969689ebda)" style="fill: #1f77b4"/>
   </g>
   <g id="patch_71">
    <path d="M 74.79041 307.584 
L 75.748093 307.584 
L 75.748093 267.567158 
L 74.79041 267.567158 
z
" clip-path="url(#p969689ebda)" style="fill: #ff7f0e"/>
   </g>
   <g id="patch_72">
    <path d="M 79.578825 307.584 
L 80.536508 307.584 
L 80.536508 54.144 
L 79.578825 54.144 
z
" clip-path="url(#p969689ebda)" style="fill: #ff7f0e"/>
   </g>
   <g id="patch_73">
    <path d="M 84.367241 307.584 
L 85.324924 307.584 
L 85.324924 160.855579 
L 84.367241 160.855579 
z
" clip-path="url(#p969689ebda)" style="fill: #ff7f0e"/>
   </g>
   <g id="patch_74">
    <path d="M 89.155656 307.584 
L 90.113339 307.584 
L 90.113339 200.872421 
L 89.155656 200.872421 
z
" clip-path="url(#p969689ebda)" style="fill: #ff7f0e"/>
   </g>
   <g id="patch_75">
    <path d="M 93.944071 307.584 
L 94.901754 307.584 
L 94.901754 227.550316 
L 93.944071 227.550316 
z
" clip-path="url(#p969689ebda)" style="fill: #ff7f0e"/>
   </g>
   <g id="patch_76">
    <path d="M 98.732486 307.584 
L 99.690169 307.584 
L 99.690169 294.245053 
L 98.732486 294.245053 
z
" clip-path="url(#p969689ebda)" style="fill: #ff7f0e"/>
   </g>
   <g id="patch_77">
    <path d="M 103.520901 307.584 
L 104.478584 307.584 
L 104.478584 254.228211 
L 103.520901 254.228211 
z
" clip-path="url(#p969689ebda)" style="fill: #ff7f0e"/>
   </g>
   <g id="patch_78">
    <path d="M 108.309316 307.584 
L 109.266999 307.584 
L 109.266999 294.245053 
L 108.309316 294.245053 
z
" clip-path="url(#p969689ebda)" style="fill: #ff7f0e"/>
   </g>
   <g id="patch_79">
    <path d="M 113.097731 307.584 
L 114.055414 307.584 
L 114.055414 307.584 
L 113.097731 307.584 
z
" clip-path="url(#p969689ebda)" style="fill: #ff7f0e"/>
   </g>
   <g id="patch_80">
    <path d="M 117.886146 307.584 
L 118.843829 307.584 
L 118.843829 307.584 
L 117.886146 307.584 
z
" clip-path="url(#p969689ebda)" style="fill: #ff7f0e"/>
   </g>
   <g id="patch_81">
    <path d="M 122.674562 307.584 
L 123.632245 307.584 
L 123.632245 307.584 
L 122.674562 307.584 
z
" clip-path="url(#p969689ebda)" style="fill: #ff7f0e"/>
   </g>
   <g id="patch_82">
    <path d="M 127.462977 307.584 
L 128.42066 307.584 
L 128.42066 307.584 
L 127.462977 307.584 
z
" clip-path="url(#p969689ebda)" style="fill: #ff7f0e"/>
   </g>
   <g id="patch_83">
    <path d="M 132.251392 307.584 
L 133.209075 307.584 
L 133.209075 307.584 
L 132.251392 307.584 
z
" clip-path="url(#p969689ebda)" style="fill: #ff7f0e"/>
   </g>
   <g id="patch_84">
    <path d="M 137.039807 307.584 
L 137.99749 307.584 
L 137.99749 307.584 
L 137.039807 307.584 
z
" clip-path="url(#p969689ebda)" style="fill: #ff7f0e"/>
   </g>
   <g id="patch_85">
    <path d="M 141.828222 307.584 
L 142.785905 307.584 
L 142.785905 307.584 
L 141.828222 307.584 
z
" clip-path="url(#p969689ebda)" style="fill: #ff7f0e"/>
   </g>
   <g id="patch_86">
    <path d="M 146.616637 307.584 
L 147.57432 307.584 
L 147.57432 307.584 
L 146.616637 307.584 
z
" clip-path="url(#p969689ebda)" style="fill: #ff7f0e"/>
   </g>
   <g id="patch_87">
    <path d="M 151.405052 307.584 
L 152.362735 307.584 
L 152.362735 307.584 
L 151.405052 307.584 
z
" clip-path="url(#p969689ebda)" style="fill: #ff7f0e"/>
   </g>
   <g id="patch_88">
    <path d="M 156.193467 307.584 
L 157.15115 307.584 
L 157.15115 307.584 
L 156.193467 307.584 
z
" clip-path="url(#p969689ebda)" style="fill: #ff7f0e"/>
   </g>
   <g id="patch_89">
    <path d="M 160.981883 307.584 
L 161.939566 307.584 
L 161.939566 307.584 
L 160.981883 307.584 
z
" clip-path="url(#p969689ebda)" style="fill: #ff7f0e"/>
   </g>
   <g id="patch_90">
    <path d="M 165.770298 307.584 
L 166.727981 307.584 
L 166.727981 307.584 
L 165.770298 307.584 
z
" clip-path="url(#p969689ebda)" style="fill: #ff7f0e"/>
   </g>
   <g id="patch_91">
    <path d="M 170.558713 307.584 
L 171.516396 307.584 
L 171.516396 307.584 
L 170.558713 307.584 
z
" clip-path="url(#p969689ebda)" style="fill: #ff7f0e"/>
   </g>
   <g id="patch_92">
    <path d="M 175.347128 307.584 
L 176.304811 307.584 
L 176.304811 307.584 
L 175.347128 307.584 
z
" clip-path="url(#p969689ebda)" style="fill: #ff7f0e"/>
   </g>
   <g id="patch_93">
    <path d="M 180.135543 307.584 
L 181.093226 307.584 
L 181.093226 307.584 
L 180.135543 307.584 
z
" clip-path="url(#p969689ebda)" style="fill: #ff7f0e"/>
   </g>
   <g id="patch_94">
    <path d="M 184.923958 307.584 
L 185.881641 307.584 
L 185.881641 307.584 
L 184.923958 307.584 
z
" clip-path="url(#p969689ebda)" style="fill: #ff7f0e"/>
   </g>
   <g id="patch_95">
    <path d="M 189.712373 307.584 
L 190.670056 307.584 
L 190.670056 307.584 
L 189.712373 307.584 
z
" clip-path="url(#p969689ebda)" style="fill: #ff7f0e"/>
   </g>
   <g id="patch_96">
    <path d="M 194.500788 307.584 
L 195.458471 307.584 
L 195.458471 307.584 
L 194.500788 307.584 
z
" clip-path="url(#p969689ebda)" style="fill: #ff7f0e"/>
   </g>
   <g id="patch_97">
    <path d="M 199.289204 307.584 
L 200.246887 307.584 
L 200.246887 307.584 
L 199.289204 307.584 
z
" clip-path="url(#p969689ebda)" style="fill: #ff7f0e"/>
   </g>
   <g id="patch_98">
    <path d="M 204.077619 307.584 
L 205.035302 307.584 
L 205.035302 307.584 
L 204.077619 307.584 
z
" clip-path="url(#p969689ebda)" style="fill: #ff7f0e"/>
   </g>
   <g id="patch_99">
    <path d="M 208.866034 307.584 
L 209.823717 307.584 
L 209.823717 307.584 
L 208.866034 307.584 
z
" clip-path="url(#p969689ebda)" style="fill: #ff7f0e"/>
   </g>
   <g id="patch_100">
    <path d="M 213.654449 307.584 
L 214.612132 307.584 
L 214.612132 307.584 
L 213.654449 307.584 
z
" clip-path="url(#p969689ebda)" style="fill: #ff7f0e"/>
   </g>
   <g id="patch_101">
    <path d="M 218.442864 307.584 
L 219.400547 307.584 
L 219.400547 307.584 
L 218.442864 307.584 
z
" clip-path="url(#p969689ebda)" style="fill: #ff7f0e"/>
   </g>
   <g id="patch_102">
    <path d="M 223.231279 307.584 
L 224.188962 307.584 
L 224.188962 307.584 
L 223.231279 307.584 
z
" clip-path="url(#p969689ebda)" style="fill: #ff7f0e"/>
   </g>
   <g id="patch_103">
    <path d="M 228.019694 307.584 
L 228.977377 307.584 
L 228.977377 307.584 
L 228.019694 307.584 
z
" clip-path="url(#p969689ebda)" style="fill: #ff7f0e"/>
   </g>
   <g id="patch_104">
    <path d="M 232.808109 307.584 
L 233.765792 307.584 
L 233.765792 307.584 
L 232.808109 307.584 
z
" clip-path="url(#p969689ebda)" style="fill: #ff7f0e"/>
   </g>
   <g id="patch_105">
    <path d="M 237.596525 307.584 
L 238.554208 307.584 
L 238.554208 307.584 
L 237.596525 307.584 
z
" clip-path="url(#p969689ebda)" style="fill: #ff7f0e"/>
   </g>
   <g id="patch_106">
    <path d="M 242.38494 307.584 
L 243.342623 307.584 
L 243.342623 307.584 
L 242.38494 307.584 
z
" clip-path="url(#p969689ebda)" style="fill: #ff7f0e"/>
   </g>
   <g id="patch_107">
    <path d="M 247.173355 307.584 
L 248.131038 307.584 
L 248.131038 307.584 
L 247.173355 307.584 
z
" clip-path="url(#p969689ebda)" style="fill: #ff7f0e"/>
   </g>
   <g id="patch_108">
    <path d="M 251.96177 307.584 
L 252.919453 307.584 
L 252.919453 307.584 
L 251.96177 307.584 
z
" clip-path="url(#p969689ebda)" style="fill: #ff7f0e"/>
   </g>
   <g id="patch_109">
    <path d="M 256.750185 307.584 
L 257.707868 307.584 
L 257.707868 307.584 
L 256.750185 307.584 
z
" clip-path="url(#p969689ebda)" style="fill: #ff7f0e"/>
   </g>
   <g id="patch_110">
    <path d="M 261.5386 307.584 
L 262.496283 307.584 
L 262.496283 307.584 
L 261.5386 307.584 
z
" clip-path="url(#p969689ebda)" style="fill: #ff7f0e"/>
   </g>
   <g id="patch_111">
    <path d="M 266.327015 307.584 
L 267.284698 307.584 
L 267.284698 307.584 
L 266.327015 307.584 
z
" clip-path="url(#p969689ebda)" style="fill: #ff7f0e"/>
   </g>
   <g id="patch_112">
    <path d="M 271.11543 307.584 
L 272.073113 307.584 
L 272.073113 307.584 
L 271.11543 307.584 
z
" clip-path="url(#p969689ebda)" style="fill: #ff7f0e"/>
   </g>
   <g id="patch_113">
    <path d="M 275.903846 307.584 
L 276.861529 307.584 
L 276.861529 307.584 
L 275.903846 307.584 
z
" clip-path="url(#p969689ebda)" style="fill: #ff7f0e"/>
   </g>
   <g id="patch_114">
    <path d="M 280.692261 307.584 
L 281.649944 307.584 
L 281.649944 307.584 
L 280.692261 307.584 
z
" clip-path="url(#p969689ebda)" style="fill: #ff7f0e"/>
   </g>
   <g id="patch_115">
    <path d="M 285.480676 307.584 
L 286.438359 307.584 
L 286.438359 307.584 
L 285.480676 307.584 
z
" clip-path="url(#p969689ebda)" style="fill: #ff7f0e"/>
   </g>
   <g id="patch_116">
    <path d="M 290.269091 307.584 
L 291.226774 307.584 
L 291.226774 307.584 
L 290.269091 307.584 
z
" clip-path="url(#p969689ebda)" style="fill: #ff7f0e"/>
   </g>
   <g id="patch_117">
    <path d="M 295.057506 307.584 
L 296.015189 307.584 
L 296.015189 307.584 
L 295.057506 307.584 
z
" clip-path="url(#p969689ebda)" style="fill: #ff7f0e"/>
   </g>
   <g id="patch_118">
    <path d="M 299.845921 307.584 
L 300.803604 307.584 
L 300.803604 307.584 
L 299.845921 307.584 
z
" clip-path="url(#p969689ebda)" style="fill: #ff7f0e"/>
   </g>
   <g id="patch_119">
    <path d="M 304.634336 307.584 
L 305.592019 307.584 
L 305.592019 307.584 
L 304.634336 307.584 
z
" clip-path="url(#p969689ebda)" style="fill: #ff7f0e"/>
   </g>
   <g id="patch_120">
    <path d="M 309.422751 307.584 
L 310.380434 307.584 
L 310.380434 307.584 
L 309.422751 307.584 
z
" clip-path="url(#p969689ebda)" style="fill: #ff7f0e"/>
   </g>
   <g id="patch_121">
    <path d="M 314.211167 307.584 
L 315.16885 307.584 
L 315.16885 307.584 
L 314.211167 307.584 
z
" clip-path="url(#p969689ebda)" style="fill: #ff7f0e"/>
   </g>
   <g id="patch_122">
    <path d="M 318.999582 307.584 
L 319.957265 307.584 
L 319.957265 307.584 
L 318.999582 307.584 
z
" clip-path="url(#p969689ebda)" style="fill: #ff7f0e"/>
   </g>
   <g id="patch_123">
    <path d="M 323.787997 307.584 
L 324.74568 307.584 
L 324.74568 307.584 
L 323.787997 307.584 
z
" clip-path="url(#p969689ebda)" style="fill: #ff7f0e"/>
   </g>
   <g id="patch_124">
    <path d="M 328.576412 307.584 
L 329.534095 307.584 
L 329.534095 307.584 
L 328.576412 307.584 
z
" clip-path="url(#p969689ebda)" style="fill: #ff7f0e"/>
   </g>
   <g id="patch_125">
    <path d="M 333.364827 307.584 
L 334.32251 307.584 
L 334.32251 307.584 
L 333.364827 307.584 
z
" clip-path="url(#p969689ebda)" style="fill: #ff7f0e"/>
   </g>
   <g id="patch_126">
    <path d="M 338.153242 307.584 
L 339.110925 307.584 
L 339.110925 307.584 
L 338.153242 307.584 
z
" clip-path="url(#p969689ebda)" style="fill: #ff7f0e"/>
   </g>
   <g id="patch_127">
    <path d="M 342.941657 307.584 
L 343.89934 307.584 
L 343.89934 307.584 
L 342.941657 307.584 
z
" clip-path="url(#p969689ebda)" style="fill: #ff7f0e"/>
   </g>
   <g id="patch_128">
    <path d="M 347.730072 307.584 
L 348.687755 307.584 
L 348.687755 307.584 
L 347.730072 307.584 
z
" clip-path="url(#p969689ebda)" style="fill: #ff7f0e"/>
   </g>
   <g id="patch_129">
    <path d="M 352.518488 307.584 
L 353.476171 307.584 
L 353.476171 307.584 
L 352.518488 307.584 
z
" clip-path="url(#p969689ebda)" style="fill: #ff7f0e"/>
   </g>
   <g id="patch_130">
    <path d="M 357.306903 307.584 
L 358.264586 307.584 
L 358.264586 307.584 
L 357.306903 307.584 
z
" clip-path="url(#p969689ebda)" style="fill: #ff7f0e"/>
   </g>
   <g id="patch_131">
    <path d="M 362.095318 307.584 
L 363.053001 307.584 
L 363.053001 307.584 
L 362.095318 307.584 
z
" clip-path="url(#p969689ebda)" style="fill: #ff7f0e"/>
   </g>
   <g id="patch_132">
    <path d="M 366.883733 307.584 
L 367.841416 307.584 
L 367.841416 307.584 
L 366.883733 307.584 
z
" clip-path="url(#p969689ebda)" style="fill: #ff7f0e"/>
   </g>
   <g id="patch_133">
    <path d="M 371.672148 307.584 
L 372.629831 307.584 
L 372.629831 307.584 
L 371.672148 307.584 
z
" clip-path="url(#p969689ebda)" style="fill: #ff7f0e"/>
   </g>
   <g id="patch_134">
    <path d="M 376.460563 307.584 
L 377.418246 307.584 
L 377.418246 307.584 
L 376.460563 307.584 
z
" clip-path="url(#p969689ebda)" style="fill: #ff7f0e"/>
   </g>
   <g id="patch_135">
    <path d="M 381.248978 307.584 
L 382.206661 307.584 
L 382.206661 307.584 
L 381.248978 307.584 
z
" clip-path="url(#p969689ebda)" style="fill: #ff7f0e"/>
   </g>
   <g id="patch_136">
    <path d="M 386.037393 307.584 
L 386.995076 307.584 
L 386.995076 307.584 
L 386.037393 307.584 
z
" clip-path="url(#p969689ebda)" style="fill: #ff7f0e"/>
   </g>
   <g id="patch_137">
    <path d="M 390.825809 307.584 
L 391.783492 307.584 
L 391.783492 307.584 
L 390.825809 307.584 
z
" clip-path="url(#p969689ebda)" style="fill: #ff7f0e"/>
   </g>
   <g id="patch_138">
    <path d="M 395.614224 307.584 
L 396.571907 307.584 
L 396.571907 307.584 
L 395.614224 307.584 
z
" clip-path="url(#p969689ebda)" style="fill: #ff7f0e"/>
   </g>
   <g id="patch_139">
    <path d="M 75.748093 307.584 
L 76.705776 307.584 
L 76.705776 227.550316 
L 75.748093 227.550316 
z
" clip-path="url(#p969689ebda)" style="fill: #2ca02c"/>
   </g>
   <g id="patch_140">
    <path d="M 80.536508 307.584 
L 81.494191 307.584 
L 81.494191 67.482947 
L 80.536508 67.482947 
z
" clip-path="url(#p969689ebda)" style="fill: #2ca02c"/>
   </g>
   <g id="patch_141">
    <path d="M 85.324924 307.584 
L 86.282607 307.584 
L 86.282607 200.872421 
L 85.324924 200.872421 
z
" clip-path="url(#p969689ebda)" style="fill: #2ca02c"/>
   </g>
   <g id="patch_142">
    <path d="M 90.113339 307.584 
L 91.071022 307.584 
L 91.071022 280.906105 
L 90.113339 280.906105 
z
" clip-path="url(#p969689ebda)" style="fill: #2ca02c"/>
   </g>
   <g id="patch_143">
    <path d="M 94.901754 307.584 
L 95.859437 307.584 
L 95.859437 214.211368 
L 94.901754 214.211368 
z
" clip-path="url(#p969689ebda)" style="fill: #2ca02c"/>
   </g>
   <g id="patch_144">
    <path d="M 99.690169 307.584 
L 100.647852 307.584 
L 100.647852 267.567158 
L 99.690169 267.567158 
z
" clip-path="url(#p969689ebda)" style="fill: #2ca02c"/>
   </g>
   <g id="patch_145">
    <path d="M 104.478584 307.584 
L 105.436267 307.584 
L 105.436267 267.567158 
L 104.478584 267.567158 
z
" clip-path="url(#p969689ebda)" style="fill: #2ca02c"/>
   </g>
   <g id="patch_146">
    <path d="M 109.266999 307.584 
L 110.224682 307.584 
L 110.224682 307.584 
L 109.266999 307.584 
z
" clip-path="url(#p969689ebda)" style="fill: #2ca02c"/>
   </g>
   <g id="patch_147">
    <path d="M 114.055414 307.584 
L 115.013097 307.584 
L 115.013097 307.584 
L 114.055414 307.584 
z
" clip-path="url(#p969689ebda)" style="fill: #2ca02c"/>
   </g>
   <g id="patch_148">
    <path d="M 118.843829 307.584 
L 119.801512 307.584 
L 119.801512 307.584 
L 118.843829 307.584 
z
" clip-path="url(#p969689ebda)" style="fill: #2ca02c"/>
   </g>
   <g id="patch_149">
    <path d="M 123.632245 307.584 
L 124.589928 307.584 
L 124.589928 307.584 
L 123.632245 307.584 
z
" clip-path="url(#p969689ebda)" style="fill: #2ca02c"/>
   </g>
   <g id="patch_150">
    <path d="M 128.42066 307.584 
L 129.378343 307.584 
L 129.378343 307.584 
L 128.42066 307.584 
z
" clip-path="url(#p969689ebda)" style="fill: #2ca02c"/>
   </g>
   <g id="patch_151">
    <path d="M 133.209075 307.584 
L 134.166758 307.584 
L 134.166758 307.584 
L 133.209075 307.584 
z
" clip-path="url(#p969689ebda)" style="fill: #2ca02c"/>
   </g>
   <g id="patch_152">
    <path d="M 137.99749 307.584 
L 138.955173 307.584 
L 138.955173 307.584 
L 137.99749 307.584 
z
" clip-path="url(#p969689ebda)" style="fill: #2ca02c"/>
   </g>
   <g id="patch_153">
    <path d="M 142.785905 307.584 
L 143.743588 307.584 
L 143.743588 307.584 
L 142.785905 307.584 
z
" clip-path="url(#p969689ebda)" style="fill: #2ca02c"/>
   </g>
   <g id="patch_154">
    <path d="M 147.57432 307.584 
L 148.532003 307.584 
L 148.532003 307.584 
L 147.57432 307.584 
z
" clip-path="url(#p969689ebda)" style="fill: #2ca02c"/>
   </g>
   <g id="patch_155">
    <path d="M 152.362735 307.584 
L 153.320418 307.584 
L 153.320418 307.584 
L 152.362735 307.584 
z
" clip-path="url(#p969689ebda)" style="fill: #2ca02c"/>
   </g>
   <g id="patch_156">
    <path d="M 157.15115 307.584 
L 158.108833 307.584 
L 158.108833 307.584 
L 157.15115 307.584 
z
" clip-path="url(#p969689ebda)" style="fill: #2ca02c"/>
   </g>
   <g id="patch_157">
    <path d="M 161.939566 307.584 
L 162.897249 307.584 
L 162.897249 307.584 
L 161.939566 307.584 
z
" clip-path="url(#p969689ebda)" style="fill: #2ca02c"/>
   </g>
   <g id="patch_158">
    <path d="M 166.727981 307.584 
L 167.685664 307.584 
L 167.685664 307.584 
L 166.727981 307.584 
z
" clip-path="url(#p969689ebda)" style="fill: #2ca02c"/>
   </g>
   <g id="patch_159">
    <path d="M 171.516396 307.584 
L 172.474079 307.584 
L 172.474079 307.584 
L 171.516396 307.584 
z
" clip-path="url(#p969689ebda)" style="fill: #2ca02c"/>
   </g>
   <g id="patch_160">
    <path d="M 176.304811 307.584 
L 177.262494 307.584 
L 177.262494 307.584 
L 176.304811 307.584 
z
" clip-path="url(#p969689ebda)" style="fill: #2ca02c"/>
   </g>
   <g id="patch_161">
    <path d="M 181.093226 307.584 
L 182.050909 307.584 
L 182.050909 307.584 
L 181.093226 307.584 
z
" clip-path="url(#p969689ebda)" style="fill: #2ca02c"/>
   </g>
   <g id="patch_162">
    <path d="M 185.881641 307.584 
L 186.839324 307.584 
L 186.839324 307.584 
L 185.881641 307.584 
z
" clip-path="url(#p969689ebda)" style="fill: #2ca02c"/>
   </g>
   <g id="patch_163">
    <path d="M 190.670056 307.584 
L 191.627739 307.584 
L 191.627739 307.584 
L 190.670056 307.584 
z
" clip-path="url(#p969689ebda)" style="fill: #2ca02c"/>
   </g>
   <g id="patch_164">
    <path d="M 195.458471 307.584 
L 196.416154 307.584 
L 196.416154 307.584 
L 195.458471 307.584 
z
" clip-path="url(#p969689ebda)" style="fill: #2ca02c"/>
   </g>
   <g id="patch_165">
    <path d="M 200.246887 307.584 
L 201.20457 307.584 
L 201.20457 307.584 
L 200.246887 307.584 
z
" clip-path="url(#p969689ebda)" style="fill: #2ca02c"/>
   </g>
   <g id="patch_166">
    <path d="M 205.035302 307.584 
L 205.992985 307.584 
L 205.992985 307.584 
L 205.035302 307.584 
z
" clip-path="url(#p969689ebda)" style="fill: #2ca02c"/>
   </g>
   <g id="patch_167">
    <path d="M 209.823717 307.584 
L 210.7814 307.584 
L 210.7814 307.584 
L 209.823717 307.584 
z
" clip-path="url(#p969689ebda)" style="fill: #2ca02c"/>
   </g>
   <g id="patch_168">
    <path d="M 214.612132 307.584 
L 215.569815 307.584 
L 215.569815 307.584 
L 214.612132 307.584 
z
" clip-path="url(#p969689ebda)" style="fill: #2ca02c"/>
   </g>
   <g id="patch_169">
    <path d="M 219.400547 307.584 
L 220.35823 307.584 
L 220.35823 307.584 
L 219.400547 307.584 
z
" clip-path="url(#p969689ebda)" style="fill: #2ca02c"/>
   </g>
   <g id="patch_170">
    <path d="M 224.188962 307.584 
L 225.146645 307.584 
L 225.146645 307.584 
L 224.188962 307.584 
z
" clip-path="url(#p969689ebda)" style="fill: #2ca02c"/>
   </g>
   <g id="patch_171">
    <path d="M 228.977377 307.584 
L 229.93506 307.584 
L 229.93506 307.584 
L 228.977377 307.584 
z
" clip-path="url(#p969689ebda)" style="fill: #2ca02c"/>
   </g>
   <g id="patch_172">
    <path d="M 233.765792 307.584 
L 234.723475 307.584 
L 234.723475 307.584 
L 233.765792 307.584 
z
" clip-path="url(#p969689ebda)" style="fill: #2ca02c"/>
   </g>
   <g id="patch_173">
    <path d="M 238.554208 307.584 
L 239.511891 307.584 
L 239.511891 307.584 
L 238.554208 307.584 
z
" clip-path="url(#p969689ebda)" style="fill: #2ca02c"/>
   </g>
   <g id="patch_174">
    <path d="M 243.342623 307.584 
L 244.300306 307.584 
L 244.300306 307.584 
L 243.342623 307.584 
z
" clip-path="url(#p969689ebda)" style="fill: #2ca02c"/>
   </g>
   <g id="patch_175">
    <path d="M 248.131038 307.584 
L 249.088721 307.584 
L 249.088721 307.584 
L 248.131038 307.584 
z
" clip-path="url(#p969689ebda)" style="fill: #2ca02c"/>
   </g>
   <g id="patch_176">
    <path d="M 252.919453 307.584 
L 253.877136 307.584 
L 253.877136 307.584 
L 252.919453 307.584 
z
" clip-path="url(#p969689ebda)" style="fill: #2ca02c"/>
   </g>
   <g id="patch_177">
    <path d="M 257.707868 307.584 
L 258.665551 307.584 
L 258.665551 307.584 
L 257.707868 307.584 
z
" clip-path="url(#p969689ebda)" style="fill: #2ca02c"/>
   </g>
   <g id="patch_178">
    <path d="M 262.496283 307.584 
L 263.453966 307.584 
L 263.453966 307.584 
L 262.496283 307.584 
z
" clip-path="url(#p969689ebda)" style="fill: #2ca02c"/>
   </g>
   <g id="patch_179">
    <path d="M 267.284698 307.584 
L 268.242381 307.584 
L 268.242381 307.584 
L 267.284698 307.584 
z
" clip-path="url(#p969689ebda)" style="fill: #2ca02c"/>
   </g>
   <g id="patch_180">
    <path d="M 272.073113 307.584 
L 273.030796 307.584 
L 273.030796 307.584 
L 272.073113 307.584 
z
" clip-path="url(#p969689ebda)" style="fill: #2ca02c"/>
   </g>
   <g id="patch_181">
    <path d="M 276.861529 307.584 
L 277.819212 307.584 
L 277.819212 307.584 
L 276.861529 307.584 
z
" clip-path="url(#p969689ebda)" style="fill: #2ca02c"/>
   </g>
   <g id="patch_182">
    <path d="M 281.649944 307.584 
L 282.607627 307.584 
L 282.607627 307.584 
L 281.649944 307.584 
z
" clip-path="url(#p969689ebda)" style="fill: #2ca02c"/>
   </g>
   <g id="patch_183">
    <path d="M 286.438359 307.584 
L 287.396042 307.584 
L 287.396042 307.584 
L 286.438359 307.584 
z
" clip-path="url(#p969689ebda)" style="fill: #2ca02c"/>
   </g>
   <g id="patch_184">
    <path d="M 291.226774 307.584 
L 292.184457 307.584 
L 292.184457 307.584 
L 291.226774 307.584 
z
" clip-path="url(#p969689ebda)" style="fill: #2ca02c"/>
   </g>
   <g id="patch_185">
    <path d="M 296.015189 307.584 
L 296.972872 307.584 
L 296.972872 307.584 
L 296.015189 307.584 
z
" clip-path="url(#p969689ebda)" style="fill: #2ca02c"/>
   </g>
   <g id="patch_186">
    <path d="M 300.803604 307.584 
L 301.761287 307.584 
L 301.761287 307.584 
L 300.803604 307.584 
z
" clip-path="url(#p969689ebda)" style="fill: #2ca02c"/>
   </g>
   <g id="patch_187">
    <path d="M 305.592019 307.584 
L 306.549702 307.584 
L 306.549702 307.584 
L 305.592019 307.584 
z
" clip-path="url(#p969689ebda)" style="fill: #2ca02c"/>
   </g>
   <g id="patch_188">
    <path d="M 310.380434 307.584 
L 311.338117 307.584 
L 311.338117 307.584 
L 310.380434 307.584 
z
" clip-path="url(#p969689ebda)" style="fill: #2ca02c"/>
   </g>
   <g id="patch_189">
    <path d="M 315.16885 307.584 
L 316.126533 307.584 
L 316.126533 307.584 
L 315.16885 307.584 
z
" clip-path="url(#p969689ebda)" style="fill: #2ca02c"/>
   </g>
   <g id="patch_190">
    <path d="M 319.957265 307.584 
L 320.914948 307.584 
L 320.914948 307.584 
L 319.957265 307.584 
z
" clip-path="url(#p969689ebda)" style="fill: #2ca02c"/>
   </g>
   <g id="patch_191">
    <path d="M 324.74568 307.584 
L 325.703363 307.584 
L 325.703363 307.584 
L 324.74568 307.584 
z
" clip-path="url(#p969689ebda)" style="fill: #2ca02c"/>
   </g>
   <g id="patch_192">
    <path d="M 329.534095 307.584 
L 330.491778 307.584 
L 330.491778 307.584 
L 329.534095 307.584 
z
" clip-path="url(#p969689ebda)" style="fill: #2ca02c"/>
   </g>
   <g id="patch_193">
    <path d="M 334.32251 307.584 
L 335.280193 307.584 
L 335.280193 307.584 
L 334.32251 307.584 
z
" clip-path="url(#p969689ebda)" style="fill: #2ca02c"/>
   </g>
   <g id="patch_194">
    <path d="M 339.110925 307.584 
L 340.068608 307.584 
L 340.068608 307.584 
L 339.110925 307.584 
z
" clip-path="url(#p969689ebda)" style="fill: #2ca02c"/>
   </g>
   <g id="patch_195">
    <path d="M 343.89934 307.584 
L 344.857023 307.584 
L 344.857023 307.584 
L 343.89934 307.584 
z
" clip-path="url(#p969689ebda)" style="fill: #2ca02c"/>
   </g>
   <g id="patch_196">
    <path d="M 348.687755 307.584 
L 349.645438 307.584 
L 349.645438 307.584 
L 348.687755 307.584 
z
" clip-path="url(#p969689ebda)" style="fill: #2ca02c"/>
   </g>
   <g id="patch_197">
    <path d="M 353.476171 307.584 
L 354.433854 307.584 
L 354.433854 307.584 
L 353.476171 307.584 
z
" clip-path="url(#p969689ebda)" style="fill: #2ca02c"/>
   </g>
   <g id="patch_198">
    <path d="M 358.264586 307.584 
L 359.222269 307.584 
L 359.222269 307.584 
L 358.264586 307.584 
z
" clip-path="url(#p969689ebda)" style="fill: #2ca02c"/>
   </g>
   <g id="patch_199">
    <path d="M 363.053001 307.584 
L 364.010684 307.584 
L 364.010684 307.584 
L 363.053001 307.584 
z
" clip-path="url(#p969689ebda)" style="fill: #2ca02c"/>
   </g>
   <g id="patch_200">
    <path d="M 367.841416 307.584 
L 368.799099 307.584 
L 368.799099 307.584 
L 367.841416 307.584 
z
" clip-path="url(#p969689ebda)" style="fill: #2ca02c"/>
   </g>
   <g id="patch_201">
    <path d="M 372.629831 307.584 
L 373.587514 307.584 
L 373.587514 307.584 
L 372.629831 307.584 
z
" clip-path="url(#p969689ebda)" style="fill: #2ca02c"/>
   </g>
   <g id="patch_202">
    <path d="M 377.418246 307.584 
L 378.375929 307.584 
L 378.375929 307.584 
L 377.418246 307.584 
z
" clip-path="url(#p969689ebda)" style="fill: #2ca02c"/>
   </g>
   <g id="patch_203">
    <path d="M 382.206661 307.584 
L 383.164344 307.584 
L 383.164344 307.584 
L 382.206661 307.584 
z
" clip-path="url(#p969689ebda)" style="fill: #2ca02c"/>
   </g>
   <g id="patch_204">
    <path d="M 386.995076 307.584 
L 387.952759 307.584 
L 387.952759 307.584 
L 386.995076 307.584 
z
" clip-path="url(#p969689ebda)" style="fill: #2ca02c"/>
   </g>
   <g id="patch_205">
    <path d="M 391.783492 307.584 
L 392.741175 307.584 
L 392.741175 307.584 
L 391.783492 307.584 
z
" clip-path="url(#p969689ebda)" style="fill: #2ca02c"/>
   </g>
   <g id="patch_206">
    <path d="M 396.571907 307.584 
L 397.52959 307.584 
L 397.52959 307.584 
L 396.571907 307.584 
z
" clip-path="url(#p969689ebda)" style="fill: #2ca02c"/>
   </g>
   <g id="patch_207">
    <path d="M 76.705776 307.584 
L 77.663459 307.584 
L 77.663459 307.584 
L 76.705776 307.584 
z
" clip-path="url(#p969689ebda)" style="fill: #d62728"/>
   </g>
   <g id="patch_208">
    <path d="M 81.494191 307.584 
L 82.451874 307.584 
L 82.451874 307.584 
L 81.494191 307.584 
z
" clip-path="url(#p969689ebda)" style="fill: #d62728"/>
   </g>
   <g id="patch_209">
    <path d="M 86.282607 307.584 
L 87.24029 307.584 
L 87.24029 307.584 
L 86.282607 307.584 
z
" clip-path="url(#p969689ebda)" style="fill: #d62728"/>
   </g>
   <g id="patch_210">
    <path d="M 91.071022 307.584 
L 92.028705 307.584 
L 92.028705 307.584 
L 91.071022 307.584 
z
" clip-path="url(#p969689ebda)" style="fill: #d62728"/>
   </g>
   <g id="patch_211">
    <path d="M 95.859437 307.584 
L 96.81712 307.584 
L 96.81712 307.584 
L 95.859437 307.584 
z
" clip-path="url(#p969689ebda)" style="fill: #d62728"/>
   </g>
   <g id="patch_212">
    <path d="M 100.647852 307.584 
L 101.605535 307.584 
L 101.605535 307.584 
L 100.647852 307.584 
z
" clip-path="url(#p969689ebda)" style="fill: #d62728"/>
   </g>
   <g id="patch_213">
    <path d="M 105.436267 307.584 
L 106.39395 307.584 
L 106.39395 307.584 
L 105.436267 307.584 
z
" clip-path="url(#p969689ebda)" style="fill: #d62728"/>
   </g>
   <g id="patch_214">
    <path d="M 110.224682 307.584 
L 111.182365 307.584 
L 111.182365 307.584 
L 110.224682 307.584 
z
" clip-path="url(#p969689ebda)" style="fill: #d62728"/>
   </g>
   <g id="patch_215">
    <path d="M 115.013097 307.584 
L 115.97078 307.584 
L 115.97078 307.584 
L 115.013097 307.584 
z
" clip-path="url(#p969689ebda)" style="fill: #d62728"/>
   </g>
   <g id="patch_216">
    <path d="M 119.801512 307.584 
L 120.759195 307.584 
L 120.759195 307.584 
L 119.801512 307.584 
z
" clip-path="url(#p969689ebda)" style="fill: #d62728"/>
   </g>
   <g id="patch_217">
    <path d="M 124.589928 307.584 
L 125.547611 307.584 
L 125.547611 307.584 
L 124.589928 307.584 
z
" clip-path="url(#p969689ebda)" style="fill: #d62728"/>
   </g>
   <g id="patch_218">
    <path d="M 129.378343 307.584 
L 130.336026 307.584 
L 130.336026 307.584 
L 129.378343 307.584 
z
" clip-path="url(#p969689ebda)" style="fill: #d62728"/>
   </g>
   <g id="patch_219">
    <path d="M 134.166758 307.584 
L 135.124441 307.584 
L 135.124441 307.584 
L 134.166758 307.584 
z
" clip-path="url(#p969689ebda)" style="fill: #d62728"/>
   </g>
   <g id="patch_220">
    <path d="M 138.955173 307.584 
L 139.912856 307.584 
L 139.912856 307.584 
L 138.955173 307.584 
z
" clip-path="url(#p969689ebda)" style="fill: #d62728"/>
   </g>
   <g id="patch_221">
    <path d="M 143.743588 307.584 
L 144.701271 307.584 
L 144.701271 307.584 
L 143.743588 307.584 
z
" clip-path="url(#p969689ebda)" style="fill: #d62728"/>
   </g>
   <g id="patch_222">
    <path d="M 148.532003 307.584 
L 149.489686 307.584 
L 149.489686 307.584 
L 148.532003 307.584 
z
" clip-path="url(#p969689ebda)" style="fill: #d62728"/>
   </g>
   <g id="patch_223">
    <path d="M 153.320418 307.584 
L 154.278101 307.584 
L 154.278101 307.584 
L 153.320418 307.584 
z
" clip-path="url(#p969689ebda)" style="fill: #d62728"/>
   </g>
   <g id="patch_224">
    <path d="M 158.108833 307.584 
L 159.066516 307.584 
L 159.066516 307.584 
L 158.108833 307.584 
z
" clip-path="url(#p969689ebda)" style="fill: #d62728"/>
   </g>
   <g id="patch_225">
    <path d="M 162.897249 307.584 
L 163.854932 307.584 
L 163.854932 307.584 
L 162.897249 307.584 
z
" clip-path="url(#p969689ebda)" style="fill: #d62728"/>
   </g>
   <g id="patch_226">
    <path d="M 167.685664 307.584 
L 168.643347 307.584 
L 168.643347 307.584 
L 167.685664 307.584 
z
" clip-path="url(#p969689ebda)" style="fill: #d62728"/>
   </g>
   <g id="patch_227">
    <path d="M 172.474079 307.584 
L 173.431762 307.584 
L 173.431762 307.584 
L 172.474079 307.584 
z
" clip-path="url(#p969689ebda)" style="fill: #d62728"/>
   </g>
   <g id="patch_228">
    <path d="M 177.262494 307.584 
L 178.220177 307.584 
L 178.220177 307.584 
L 177.262494 307.584 
z
" clip-path="url(#p969689ebda)" style="fill: #d62728"/>
   </g>
   <g id="patch_229">
    <path d="M 182.050909 307.584 
L 183.008592 307.584 
L 183.008592 307.584 
L 182.050909 307.584 
z
" clip-path="url(#p969689ebda)" style="fill: #d62728"/>
   </g>
   <g id="patch_230">
    <path d="M 186.839324 307.584 
L 187.797007 307.584 
L 187.797007 307.584 
L 186.839324 307.584 
z
" clip-path="url(#p969689ebda)" style="fill: #d62728"/>
   </g>
   <g id="patch_231">
    <path d="M 191.627739 307.584 
L 192.585422 307.584 
L 192.585422 307.584 
L 191.627739 307.584 
z
" clip-path="url(#p969689ebda)" style="fill: #d62728"/>
   </g>
   <g id="patch_232">
    <path d="M 196.416154 307.584 
L 197.373837 307.584 
L 197.373837 307.584 
L 196.416154 307.584 
z
" clip-path="url(#p969689ebda)" style="fill: #d62728"/>
   </g>
   <g id="patch_233">
    <path d="M 201.20457 307.584 
L 202.162253 307.584 
L 202.162253 307.584 
L 201.20457 307.584 
z
" clip-path="url(#p969689ebda)" style="fill: #d62728"/>
   </g>
   <g id="patch_234">
    <path d="M 205.992985 307.584 
L 206.950668 307.584 
L 206.950668 307.584 
L 205.992985 307.584 
z
" clip-path="url(#p969689ebda)" style="fill: #d62728"/>
   </g>
   <g id="patch_235">
    <path d="M 210.7814 307.584 
L 211.739083 307.584 
L 211.739083 307.584 
L 210.7814 307.584 
z
" clip-path="url(#p969689ebda)" style="fill: #d62728"/>
   </g>
   <g id="patch_236">
    <path d="M 215.569815 307.584 
L 216.527498 307.584 
L 216.527498 307.584 
L 215.569815 307.584 
z
" clip-path="url(#p969689ebda)" style="fill: #d62728"/>
   </g>
   <g id="patch_237">
    <path d="M 220.35823 307.584 
L 221.315913 307.584 
L 221.315913 307.584 
L 220.35823 307.584 
z
" clip-path="url(#p969689ebda)" style="fill: #d62728"/>
   </g>
   <g id="patch_238">
    <path d="M 225.146645 307.584 
L 226.104328 307.584 
L 226.104328 307.584 
L 225.146645 307.584 
z
" clip-path="url(#p969689ebda)" style="fill: #d62728"/>
   </g>
   <g id="patch_239">
    <path d="M 229.93506 307.584 
L 230.892743 307.584 
L 230.892743 307.584 
L 229.93506 307.584 
z
" clip-path="url(#p969689ebda)" style="fill: #d62728"/>
   </g>
   <g id="patch_240">
    <path d="M 234.723475 307.584 
L 235.681158 307.584 
L 235.681158 307.584 
L 234.723475 307.584 
z
" clip-path="url(#p969689ebda)" style="fill: #d62728"/>
   </g>
   <g id="patch_241">
    <path d="M 239.511891 307.584 
L 240.469574 307.584 
L 240.469574 307.584 
L 239.511891 307.584 
z
" clip-path="url(#p969689ebda)" style="fill: #d62728"/>
   </g>
   <g id="patch_242">
    <path d="M 244.300306 307.584 
L 245.257989 307.584 
L 245.257989 307.584 
L 244.300306 307.584 
z
" clip-path="url(#p969689ebda)" style="fill: #d62728"/>
   </g>
   <g id="patch_243">
    <path d="M 249.088721 307.584 
L 250.046404 307.584 
L 250.046404 307.584 
L 249.088721 307.584 
z
" clip-path="url(#p969689ebda)" style="fill: #d62728"/>
   </g>
   <g id="patch_244">
    <path d="M 253.877136 307.584 
L 254.834819 307.584 
L 254.834819 307.584 
L 253.877136 307.584 
z
" clip-path="url(#p969689ebda)" style="fill: #d62728"/>
   </g>
   <g id="patch_245">
    <path d="M 258.665551 307.584 
L 259.623234 307.584 
L 259.623234 307.584 
L 258.665551 307.584 
z
" clip-path="url(#p969689ebda)" style="fill: #d62728"/>
   </g>
   <g id="patch_246">
    <path d="M 263.453966 307.584 
L 264.411649 307.584 
L 264.411649 307.584 
L 263.453966 307.584 
z
" clip-path="url(#p969689ebda)" style="fill: #d62728"/>
   </g>
   <g id="patch_247">
    <path d="M 268.242381 307.584 
L 269.200064 307.584 
L 269.200064 307.584 
L 268.242381 307.584 
z
" clip-path="url(#p969689ebda)" style="fill: #d62728"/>
   </g>
   <g id="patch_248">
    <path d="M 273.030796 307.584 
L 273.988479 307.584 
L 273.988479 307.584 
L 273.030796 307.584 
z
" clip-path="url(#p969689ebda)" style="fill: #d62728"/>
   </g>
   <g id="patch_249">
    <path d="M 277.819212 307.584 
L 278.776895 307.584 
L 278.776895 307.584 
L 277.819212 307.584 
z
" clip-path="url(#p969689ebda)" style="fill: #d62728"/>
   </g>
   <g id="patch_250">
    <path d="M 282.607627 307.584 
L 283.56531 307.584 
L 283.56531 307.584 
L 282.607627 307.584 
z
" clip-path="url(#p969689ebda)" style="fill: #d62728"/>
   </g>
   <g id="patch_251">
    <path d="M 287.396042 307.584 
L 288.353725 307.584 
L 288.353725 307.584 
L 287.396042 307.584 
z
" clip-path="url(#p969689ebda)" style="fill: #d62728"/>
   </g>
   <g id="patch_252">
    <path d="M 292.184457 307.584 
L 293.14214 307.584 
L 293.14214 307.584 
L 292.184457 307.584 
z
" clip-path="url(#p969689ebda)" style="fill: #d62728"/>
   </g>
   <g id="patch_253">
    <path d="M 296.972872 307.584 
L 297.930555 307.584 
L 297.930555 307.584 
L 296.972872 307.584 
z
" clip-path="url(#p969689ebda)" style="fill: #d62728"/>
   </g>
   <g id="patch_254">
    <path d="M 301.761287 307.584 
L 302.71897 307.584 
L 302.71897 307.584 
L 301.761287 307.584 
z
" clip-path="url(#p969689ebda)" style="fill: #d62728"/>
   </g>
   <g id="patch_255">
    <path d="M 306.549702 307.584 
L 307.507385 307.584 
L 307.507385 307.584 
L 306.549702 307.584 
z
" clip-path="url(#p969689ebda)" style="fill: #d62728"/>
   </g>
   <g id="patch_256">
    <path d="M 311.338117 307.584 
L 312.2958 307.584 
L 312.2958 307.584 
L 311.338117 307.584 
z
" clip-path="url(#p969689ebda)" style="fill: #d62728"/>
   </g>
   <g id="patch_257">
    <path d="M 316.126533 307.584 
L 317.084216 307.584 
L 317.084216 307.584 
L 316.126533 307.584 
z
" clip-path="url(#p969689ebda)" style="fill: #d62728"/>
   </g>
   <g id="patch_258">
    <path d="M 320.914948 307.584 
L 321.872631 307.584 
L 321.872631 307.584 
L 320.914948 307.584 
z
" clip-path="url(#p969689ebda)" style="fill: #d62728"/>
   </g>
   <g id="patch_259">
    <path d="M 325.703363 307.584 
L 326.661046 307.584 
L 326.661046 307.584 
L 325.703363 307.584 
z
" clip-path="url(#p969689ebda)" style="fill: #d62728"/>
   </g>
   <g id="patch_260">
    <path d="M 330.491778 307.584 
L 331.449461 307.584 
L 331.449461 307.584 
L 330.491778 307.584 
z
" clip-path="url(#p969689ebda)" style="fill: #d62728"/>
   </g>
   <g id="patch_261">
    <path d="M 335.280193 307.584 
L 336.237876 307.584 
L 336.237876 307.584 
L 335.280193 307.584 
z
" clip-path="url(#p969689ebda)" style="fill: #d62728"/>
   </g>
   <g id="patch_262">
    <path d="M 340.068608 307.584 
L 341.026291 307.584 
L 341.026291 307.584 
L 340.068608 307.584 
z
" clip-path="url(#p969689ebda)" style="fill: #d62728"/>
   </g>
   <g id="patch_263">
    <path d="M 344.857023 307.584 
L 345.814706 307.584 
L 345.814706 307.584 
L 344.857023 307.584 
z
" clip-path="url(#p969689ebda)" style="fill: #d62728"/>
   </g>
   <g id="patch_264">
    <path d="M 349.645438 307.584 
L 350.603121 307.584 
L 350.603121 307.584 
L 349.645438 307.584 
z
" clip-path="url(#p969689ebda)" style="fill: #d62728"/>
   </g>
   <g id="patch_265">
    <path d="M 354.433854 307.584 
L 355.391537 307.584 
L 355.391537 307.584 
L 354.433854 307.584 
z
" clip-path="url(#p969689ebda)" style="fill: #d62728"/>
   </g>
   <g id="patch_266">
    <path d="M 359.222269 307.584 
L 360.179952 307.584 
L 360.179952 307.584 
L 359.222269 307.584 
z
" clip-path="url(#p969689ebda)" style="fill: #d62728"/>
   </g>
   <g id="patch_267">
    <path d="M 364.010684 307.584 
L 364.968367 307.584 
L 364.968367 307.584 
L 364.010684 307.584 
z
" clip-path="url(#p969689ebda)" style="fill: #d62728"/>
   </g>
   <g id="patch_268">
    <path d="M 368.799099 307.584 
L 369.756782 307.584 
L 369.756782 294.245053 
L 368.799099 294.245053 
z
" clip-path="url(#p969689ebda)" style="fill: #d62728"/>
   </g>
   <g id="patch_269">
    <path d="M 373.587514 307.584 
L 374.545197 307.584 
L 374.545197 307.584 
L 373.587514 307.584 
z
" clip-path="url(#p969689ebda)" style="fill: #d62728"/>
   </g>
   <g id="patch_270">
    <path d="M 378.375929 307.584 
L 379.333612 307.584 
L 379.333612 307.584 
L 378.375929 307.584 
z
" clip-path="url(#p969689ebda)" style="fill: #d62728"/>
   </g>
   <g id="patch_271">
    <path d="M 383.164344 307.584 
L 384.122027 307.584 
L 384.122027 294.245053 
L 383.164344 294.245053 
z
" clip-path="url(#p969689ebda)" style="fill: #d62728"/>
   </g>
   <g id="patch_272">
    <path d="M 387.952759 307.584 
L 388.910442 307.584 
L 388.910442 280.906105 
L 387.952759 280.906105 
z
" clip-path="url(#p969689ebda)" style="fill: #d62728"/>
   </g>
   <g id="patch_273">
    <path d="M 392.741175 307.584 
L 393.698858 307.584 
L 393.698858 294.245053 
L 392.741175 294.245053 
z
" clip-path="url(#p969689ebda)" style="fill: #d62728"/>
   </g>
   <g id="patch_274">
    <path d="M 397.52959 307.584 
L 398.487273 307.584 
L 398.487273 240.889263 
L 397.52959 240.889263 
z
" clip-path="url(#p969689ebda)" style="fill: #d62728"/>
   </g>
   <g id="matplotlib.axis_1">
    <g id="xtick_1">
     <g id="line2d_1">
      <defs>
       <path id="m3b367f71bb" d="M 0 0 
L 0 3.5 
" style="stroke: #000000; stroke-width: 0.8"/>
      </defs>
      <g>
       <use xlink:href="#m3b367f71bb" x="84.252178" y="307.584" style="stroke: #000000; stroke-width: 0.8"/>
      </g>
     </g>
     <g id="text_1">
      <!-- 0.05 -->
      <g transform="translate(73.119366 322.182437)scale(0.1 -0.1)">
       <defs>
        <path id="DejaVuSans-30" d="M 2034 4250 
Q 1547 4250 1301 3770 
Q 1056 3291 1056 2328 
Q 1056 1369 1301 889 
Q 1547 409 2034 409 
Q 2525 409 2770 889 
Q 3016 1369 3016 2328 
Q 3016 3291 2770 3770 
Q 2525 4250 2034 4250 
z
M 2034 4750 
Q 2819 4750 3233 4129 
Q 3647 3509 3647 2328 
Q 3647 1150 3233 529 
Q 2819 -91 2034 -91 
Q 1250 -91 836 529 
Q 422 1150 422 2328 
Q 422 3509 836 4129 
Q 1250 4750 2034 4750 
z
" transform="scale(0.015625)"/>
        <path id="DejaVuSans-2e" d="M 684 794 
L 1344 794 
L 1344 0 
L 684 0 
L 684 794 
z
" transform="scale(0.015625)"/>
        <path id="DejaVuSans-35" d="M 691 4666 
L 3169 4666 
L 3169 4134 
L 1269 4134 
L 1269 2991 
Q 1406 3038 1543 3061 
Q 1681 3084 1819 3084 
Q 2600 3084 3056 2656 
Q 3513 2228 3513 1497 
Q 3513 744 3044 326 
Q 2575 -91 1722 -91 
Q 1428 -91 1123 -41 
Q 819 9 494 109 
L 494 744 
Q 775 591 1075 516 
Q 1375 441 1709 441 
Q 2250 441 2565 725 
Q 2881 1009 2881 1497 
Q 2881 1984 2565 2268 
Q 2250 2553 1709 2553 
Q 1456 2553 1204 2497 
Q 953 2441 691 2322 
L 691 4666 
z
" transform="scale(0.015625)"/>
       </defs>
       <use xlink:href="#DejaVuSans-30"/>
       <use xlink:href="#DejaVuSans-2e" x="63.623047"/>
       <use xlink:href="#DejaVuSans-30" x="95.410156"/>
       <use xlink:href="#DejaVuSans-35" x="159.033203"/>
      </g>
     </g>
    </g>
    <g id="xtick_2">
     <g id="line2d_2">
      <g>
       <use xlink:href="#m3b367f71bb" x="131.181621" y="307.584" style="stroke: #000000; stroke-width: 0.8"/>
      </g>
     </g>
     <g id="text_2">
      <!-- 0.10 -->
      <g transform="translate(120.048808 322.182437)scale(0.1 -0.1)">
       <defs>
        <path id="DejaVuSans-31" d="M 794 531 
L 1825 531 
L 1825 4091 
L 703 3866 
L 703 4441 
L 1819 4666 
L 2450 4666 
L 2450 531 
L 3481 531 
L 3481 0 
L 794 0 
L 794 531 
z
" transform="scale(0.015625)"/>
       </defs>
       <use xlink:href="#DejaVuSans-30"/>
       <use xlink:href="#DejaVuSans-2e" x="63.623047"/>
       <use xlink:href="#DejaVuSans-31" x="95.410156"/>
       <use xlink:href="#DejaVuSans-30" x="159.033203"/>
      </g>
     </g>
    </g>
    <g id="xtick_3">
     <g id="line2d_3">
      <g>
       <use xlink:href="#m3b367f71bb" x="178.111063" y="307.584" style="stroke: #000000; stroke-width: 0.8"/>
      </g>
     </g>
     <g id="text_3">
      <!-- 0.15 -->
      <g transform="translate(166.97825 322.182437)scale(0.1 -0.1)">
       <use xlink:href="#DejaVuSans-30"/>
       <use xlink:href="#DejaVuSans-2e" x="63.623047"/>
       <use xlink:href="#DejaVuSans-31" x="95.410156"/>
       <use xlink:href="#DejaVuSans-35" x="159.033203"/>
      </g>
     </g>
    </g>
    <g id="xtick_4">
     <g id="line2d_4">
      <g>
       <use xlink:href="#m3b367f71bb" x="225.040505" y="307.584" style="stroke: #000000; stroke-width: 0.8"/>
      </g>
     </g>
     <g id="text_4">
      <!-- 0.20 -->
      <g transform="translate(213.907693 322.182437)scale(0.1 -0.1)">
       <defs>
        <path id="DejaVuSans-32" d="M 1228 531 
L 3431 531 
L 3431 0 
L 469 0 
L 469 531 
Q 828 903 1448 1529 
Q 2069 2156 2228 2338 
Q 2531 2678 2651 2914 
Q 2772 3150 2772 3378 
Q 2772 3750 2511 3984 
Q 2250 4219 1831 4219 
Q 1534 4219 1204 4116 
Q 875 4013 500 3803 
L 500 4441 
Q 881 4594 1212 4672 
Q 1544 4750 1819 4750 
Q 2544 4750 2975 4387 
Q 3406 4025 3406 3419 
Q 3406 3131 3298 2873 
Q 3191 2616 2906 2266 
Q 2828 2175 2409 1742 
Q 1991 1309 1228 531 
z
" transform="scale(0.015625)"/>
       </defs>
       <use xlink:href="#DejaVuSans-30"/>
       <use xlink:href="#DejaVuSans-2e" x="63.623047"/>
       <use xlink:href="#DejaVuSans-32" x="95.410156"/>
       <use xlink:href="#DejaVuSans-30" x="159.033203"/>
      </g>
     </g>
    </g>
    <g id="xtick_5">
     <g id="line2d_5">
      <g>
       <use xlink:href="#m3b367f71bb" x="271.969948" y="307.584" style="stroke: #000000; stroke-width: 0.8"/>
      </g>
     </g>
     <g id="text_5">
      <!-- 0.25 -->
      <g transform="translate(260.837135 322.182437)scale(0.1 -0.1)">
       <use xlink:href="#DejaVuSans-30"/>
       <use xlink:href="#DejaVuSans-2e" x="63.623047"/>
       <use xlink:href="#DejaVuSans-32" x="95.410156"/>
       <use xlink:href="#DejaVuSans-35" x="159.033203"/>
      </g>
     </g>
    </g>
    <g id="xtick_6">
     <g id="line2d_6">
      <g>
       <use xlink:href="#m3b367f71bb" x="318.89939" y="307.584" style="stroke: #000000; stroke-width: 0.8"/>
      </g>
     </g>
     <g id="text_6">
      <!-- 0.30 -->
      <g transform="translate(307.766578 322.182437)scale(0.1 -0.1)">
       <defs>
        <path id="DejaVuSans-33" d="M 2597 2516 
Q 3050 2419 3304 2112 
Q 3559 1806 3559 1356 
Q 3559 666 3084 287 
Q 2609 -91 1734 -91 
Q 1441 -91 1130 -33 
Q 819 25 488 141 
L 488 750 
Q 750 597 1062 519 
Q 1375 441 1716 441 
Q 2309 441 2620 675 
Q 2931 909 2931 1356 
Q 2931 1769 2642 2001 
Q 2353 2234 1838 2234 
L 1294 2234 
L 1294 2753 
L 1863 2753 
Q 2328 2753 2575 2939 
Q 2822 3125 2822 3475 
Q 2822 3834 2567 4026 
Q 2313 4219 1838 4219 
Q 1578 4219 1281 4162 
Q 984 4106 628 3988 
L 628 4550 
Q 988 4650 1302 4700 
Q 1616 4750 1894 4750 
Q 2613 4750 3031 4423 
Q 3450 4097 3450 3541 
Q 3450 3153 3228 2886 
Q 3006 2619 2597 2516 
z
" transform="scale(0.015625)"/>
       </defs>
       <use xlink:href="#DejaVuSans-30"/>
       <use xlink:href="#DejaVuSans-2e" x="63.623047"/>
       <use xlink:href="#DejaVuSans-33" x="95.410156"/>
       <use xlink:href="#DejaVuSans-30" x="159.033203"/>
      </g>
     </g>
    </g>
    <g id="xtick_7">
     <g id="line2d_7">
      <g>
       <use xlink:href="#m3b367f71bb" x="365.828833" y="307.584" style="stroke: #000000; stroke-width: 0.8"/>
      </g>
     </g>
     <g id="text_7">
      <!-- 0.35 -->
      <g transform="translate(354.69602 322.182437)scale(0.1 -0.1)">
       <use xlink:href="#DejaVuSans-30"/>
       <use xlink:href="#DejaVuSans-2e" x="63.623047"/>
       <use xlink:href="#DejaVuSans-33" x="95.410156"/>
       <use xlink:href="#DejaVuSans-35" x="159.033203"/>
      </g>
     </g>
    </g>
    <g id="xtick_8">
     <g id="line2d_8">
      <g>
       <use xlink:href="#m3b367f71bb" x="412.758275" y="307.584" style="stroke: #000000; stroke-width: 0.8"/>
      </g>
     </g>
     <g id="text_8">
      <!-- 0.40 -->
      <g transform="translate(401.625462 322.182437)scale(0.1 -0.1)">
       <defs>
        <path id="DejaVuSans-34" d="M 2419 4116 
L 825 1625 
L 2419 1625 
L 2419 4116 
z
M 2253 4666 
L 3047 4666 
L 3047 1625 
L 3713 1625 
L 3713 1100 
L 3047 1100 
L 3047 0 
L 2419 0 
L 2419 1100 
L 313 1100 
L 313 1709 
L 2253 4666 
z
" transform="scale(0.015625)"/>
       </defs>
       <use xlink:href="#DejaVuSans-30"/>
       <use xlink:href="#DejaVuSans-2e" x="63.623047"/>
       <use xlink:href="#DejaVuSans-34" x="95.410156"/>
       <use xlink:href="#DejaVuSans-30" x="159.033203"/>
      </g>
     </g>
    </g>
    <g id="text_9">
     <!-- Time [s] -->
     <g transform="translate(215.831094 335.860562)scale(0.1 -0.1)">
      <defs>
       <path id="DejaVuSans-54" d="M -19 4666 
L 3928 4666 
L 3928 4134 
L 2272 4134 
L 2272 0 
L 1638 0 
L 1638 4134 
L -19 4134 
L -19 4666 
z
" transform="scale(0.015625)"/>
       <path id="DejaVuSans-69" d="M 603 3500 
L 1178 3500 
L 1178 0 
L 603 0 
L 603 3500 
z
M 603 4863 
L 1178 4863 
L 1178 4134 
L 603 4134 
L 603 4863 
z
" transform="scale(0.015625)"/>
       <path id="DejaVuSans-6d" d="M 3328 2828 
Q 3544 3216 3844 3400 
Q 4144 3584 4550 3584 
Q 5097 3584 5394 3201 
Q 5691 2819 5691 2113 
L 5691 0 
L 5113 0 
L 5113 2094 
Q 5113 2597 4934 2840 
Q 4756 3084 4391 3084 
Q 3944 3084 3684 2787 
Q 3425 2491 3425 1978 
L 3425 0 
L 2847 0 
L 2847 2094 
Q 2847 2600 2669 2842 
Q 2491 3084 2119 3084 
Q 1678 3084 1418 2786 
Q 1159 2488 1159 1978 
L 1159 0 
L 581 0 
L 581 3500 
L 1159 3500 
L 1159 2956 
Q 1356 3278 1631 3431 
Q 1906 3584 2284 3584 
Q 2666 3584 2933 3390 
Q 3200 3197 3328 2828 
z
" transform="scale(0.015625)"/>
       <path id="DejaVuSans-65" d="M 3597 1894 
L 3597 1613 
L 953 1613 
Q 991 1019 1311 708 
Q 1631 397 2203 397 
Q 2534 397 2845 478 
Q 3156 559 3463 722 
L 3463 178 
Q 3153 47 2828 -22 
Q 2503 -91 2169 -91 
Q 1331 -91 842 396 
Q 353 884 353 1716 
Q 353 2575 817 3079 
Q 1281 3584 2069 3584 
Q 2775 3584 3186 3129 
Q 3597 2675 3597 1894 
z
M 3022 2063 
Q 3016 2534 2758 2815 
Q 2500 3097 2075 3097 
Q 1594 3097 1305 2825 
Q 1016 2553 972 2059 
L 3022 2063 
z
" transform="scale(0.015625)"/>
       <path id="DejaVuSans-20" transform="scale(0.015625)"/>
       <path id="DejaVuSans-5b" d="M 550 4863 
L 1875 4863 
L 1875 4416 
L 1125 4416 
L 1125 -397 
L 1875 -397 
L 1875 -844 
L 550 -844 
L 550 4863 
z
" transform="scale(0.015625)"/>
       <path id="DejaVuSans-73" d="M 2834 3397 
L 2834 2853 
Q 2591 2978 2328 3040 
Q 2066 3103 1784 3103 
Q 1356 3103 1142 2972 
Q 928 2841 928 2578 
Q 928 2378 1081 2264 
Q 1234 2150 1697 2047 
L 1894 2003 
Q 2506 1872 2764 1633 
Q 3022 1394 3022 966 
Q 3022 478 2636 193 
Q 2250 -91 1575 -91 
Q 1294 -91 989 -36 
Q 684 19 347 128 
L 347 722 
Q 666 556 975 473 
Q 1284 391 1588 391 
Q 1994 391 2212 530 
Q 2431 669 2431 922 
Q 2431 1156 2273 1281 
Q 2116 1406 1581 1522 
L 1381 1569 
Q 847 1681 609 1914 
Q 372 2147 372 2553 
Q 372 3047 722 3315 
Q 1072 3584 1716 3584 
Q 2034 3584 2315 3537 
Q 2597 3491 2834 3397 
z
" transform="scale(0.015625)"/>
       <path id="DejaVuSans-5d" d="M 1947 4863 
L 1947 -844 
L 622 -844 
L 622 -397 
L 1369 -397 
L 1369 4416 
L 622 4416 
L 622 4863 
L 1947 4863 
z
" transform="scale(0.015625)"/>
      </defs>
      <use xlink:href="#DejaVuSans-54"/>
      <use xlink:href="#DejaVuSans-69" x="57.958984"/>
      <use xlink:href="#DejaVuSans-6d" x="85.742188"/>
      <use xlink:href="#DejaVuSans-65" x="183.154297"/>
      <use xlink:href="#DejaVuSans-20" x="244.677734"/>
      <use xlink:href="#DejaVuSans-5b" x="276.464844"/>
      <use xlink:href="#DejaVuSans-73" x="315.478516"/>
      <use xlink:href="#DejaVuSans-5d" x="367.578125"/>
     </g>
    </g>
   </g>
   <g id="matplotlib.axis_2">
    <g id="ytick_1">
     <g id="line2d_9">
      <defs>
       <path id="md3c889b42c" d="M 0 0 
L -3.5 0 
" style="stroke: #000000; stroke-width: 0.8"/>
      </defs>
      <g>
       <use xlink:href="#md3c889b42c" x="57.6" y="307.584" style="stroke: #000000; stroke-width: 0.8"/>
      </g>
     </g>
     <g id="text_10">
      <!-- 0.0 -->
      <g transform="translate(34.696875 311.383219)scale(0.1 -0.1)">
       <use xlink:href="#DejaVuSans-30"/>
       <use xlink:href="#DejaVuSans-2e" x="63.623047"/>
       <use xlink:href="#DejaVuSans-30" x="95.410156"/>
      </g>
     </g>
    </g>
    <g id="ytick_2">
     <g id="line2d_10">
      <g>
       <use xlink:href="#md3c889b42c" x="57.6" y="274.236632" style="stroke: #000000; stroke-width: 0.8"/>
      </g>
     </g>
     <g id="text_11">
      <!-- 2.5 -->
      <g transform="translate(34.696875 278.03585)scale(0.1 -0.1)">
       <use xlink:href="#DejaVuSans-32"/>
       <use xlink:href="#DejaVuSans-2e" x="63.623047"/>
       <use xlink:href="#DejaVuSans-35" x="95.410156"/>
      </g>
     </g>
    </g>
    <g id="ytick_3">
     <g id="line2d_11">
      <g>
       <use xlink:href="#md3c889b42c" x="57.6" y="240.889263" style="stroke: #000000; stroke-width: 0.8"/>
      </g>
     </g>
     <g id="text_12">
      <!-- 5.0 -->
      <g transform="translate(34.696875 244.688482)scale(0.1 -0.1)">
       <use xlink:href="#DejaVuSans-35"/>
       <use xlink:href="#DejaVuSans-2e" x="63.623047"/>
       <use xlink:href="#DejaVuSans-30" x="95.410156"/>
      </g>
     </g>
    </g>
    <g id="ytick_4">
     <g id="line2d_12">
      <g>
       <use xlink:href="#md3c889b42c" x="57.6" y="207.541895" style="stroke: #000000; stroke-width: 0.8"/>
      </g>
     </g>
     <g id="text_13">
      <!-- 7.5 -->
      <g transform="translate(34.696875 211.341113)scale(0.1 -0.1)">
       <defs>
        <path id="DejaVuSans-37" d="M 525 4666 
L 3525 4666 
L 3525 4397 
L 1831 0 
L 1172 0 
L 2766 4134 
L 525 4134 
L 525 4666 
z
" transform="scale(0.015625)"/>
       </defs>
       <use xlink:href="#DejaVuSans-37"/>
       <use xlink:href="#DejaVuSans-2e" x="63.623047"/>
       <use xlink:href="#DejaVuSans-35" x="95.410156"/>
      </g>
     </g>
    </g>
    <g id="ytick_5">
     <g id="line2d_13">
      <g>
       <use xlink:href="#md3c889b42c" x="57.6" y="174.194526" style="stroke: #000000; stroke-width: 0.8"/>
      </g>
     </g>
     <g id="text_14">
      <!-- 10.0 -->
      <g transform="translate(28.334375 177.993745)scale(0.1 -0.1)">
       <use xlink:href="#DejaVuSans-31"/>
       <use xlink:href="#DejaVuSans-30" x="63.623047"/>
       <use xlink:href="#DejaVuSans-2e" x="127.246094"/>
       <use xlink:href="#DejaVuSans-30" x="159.033203"/>
      </g>
     </g>
    </g>
    <g id="ytick_6">
     <g id="line2d_14">
      <g>
       <use xlink:href="#md3c889b42c" x="57.6" y="140.847158" style="stroke: #000000; stroke-width: 0.8"/>
      </g>
     </g>
     <g id="text_15">
      <!-- 12.5 -->
      <g transform="translate(28.334375 144.646377)scale(0.1 -0.1)">
       <use xlink:href="#DejaVuSans-31"/>
       <use xlink:href="#DejaVuSans-32" x="63.623047"/>
       <use xlink:href="#DejaVuSans-2e" x="127.246094"/>
       <use xlink:href="#DejaVuSans-35" x="159.033203"/>
      </g>
     </g>
    </g>
    <g id="ytick_7">
     <g id="line2d_15">
      <g>
       <use xlink:href="#md3c889b42c" x="57.6" y="107.499789" style="stroke: #000000; stroke-width: 0.8"/>
      </g>
     </g>
     <g id="text_16">
      <!-- 15.0 -->
      <g transform="translate(28.334375 111.299008)scale(0.1 -0.1)">
       <use xlink:href="#DejaVuSans-31"/>
       <use xlink:href="#DejaVuSans-35" x="63.623047"/>
       <use xlink:href="#DejaVuSans-2e" x="127.246094"/>
       <use xlink:href="#DejaVuSans-30" x="159.033203"/>
      </g>
     </g>
    </g>
    <g id="ytick_8">
     <g id="line2d_16">
      <g>
       <use xlink:href="#md3c889b42c" x="57.6" y="74.152421" style="stroke: #000000; stroke-width: 0.8"/>
      </g>
     </g>
     <g id="text_17">
      <!-- 17.5 -->
      <g transform="translate(28.334375 77.95164)scale(0.1 -0.1)">
       <use xlink:href="#DejaVuSans-31"/>
       <use xlink:href="#DejaVuSans-37" x="63.623047"/>
       <use xlink:href="#DejaVuSans-2e" x="127.246094"/>
       <use xlink:href="#DejaVuSans-35" x="159.033203"/>
      </g>
     </g>
    </g>
   </g>
   <g id="patch_275">
    <path d="M 57.6 307.584 
L 57.6 41.472 
" style="fill: none; stroke: #000000; stroke-width: 0.8; stroke-linejoin: miter; stroke-linecap: square"/>
   </g>
   <g id="patch_276">
    <path d="M 414.72 307.584 
L 414.72 41.472 
" style="fill: none; stroke: #000000; stroke-width: 0.8; stroke-linejoin: miter; stroke-linecap: square"/>
   </g>
   <g id="patch_277">
    <path d="M 57.6 307.584 
L 414.72 307.584 
" style="fill: none; stroke: #000000; stroke-width: 0.8; stroke-linejoin: miter; stroke-linecap: square"/>
   </g>
   <g id="patch_278">
    <path d="M 57.6 41.472 
L 414.72 41.472 
" style="fill: none; stroke: #000000; stroke-width: 0.8; stroke-linejoin: miter; stroke-linecap: square"/>
   </g>
   <g id="legend_1">
    <g id="patch_279">
     <path d="M 279.72 106.895438 
L 407.72 106.895438 
Q 409.72 106.895438 409.72 104.895438 
L 409.72 48.472 
Q 409.72 46.472 407.72 46.472 
L 279.72 46.472 
Q 277.72 46.472 277.72 48.472 
L 277.72 104.895438 
Q 277.72 106.895438 279.72 106.895438 
z
" style="fill: #ffffff; opacity: 0.8; stroke: #cccccc; stroke-linejoin: miter"/>
    </g>
    <g id="patch_280">
     <path d="M 281.72 57.712625 
L 301.72 57.712625 
L 301.72 50.712625 
L 281.72 50.712625 
z
" style="fill: #1f77b4"/>
    </g>
    <g id="text_18">
     <!-- ./pog-static foo -->
     <g transform="translate(309.72 57.712625)scale(0.1 -0.1)">
      <defs>
       <path id="SourceCodePro-Regular-2e" d="M 1920 -77 
C 2208 -77 2438 141 2438 461 
C 2438 787 2208 1005 1920 1005 
C 1632 1005 1402 787 1402 461 
C 1402 141 1632 -77 1920 -77 
z
" transform="scale(0.015625)"/>
       <path id="SourceCodePro-Regular-2f" d="M 634 -1024 
L 1107 -1024 
L 3206 4544 
L 2733 4544 
L 634 -1024 
z
" transform="scale(0.015625)"/>
       <path id="SourceCodePro-Regular-70" d="M 595 -1312 
L 1120 -1312 
L 1120 -262 
L 1094 326 
L 1114 326 
C 1389 70 1754 -77 2042 -77 
C 2790 -77 3456 544 3456 1600 
C 3456 2566 3008 3187 2170 3187 
C 1786 3187 1382 2989 1094 2714 
L 1075 2714 
L 1030 3110 
L 595 3110 
L 595 -1312 
z
M 1952 365 
C 1741 365 1414 467 1120 730 
L 1120 2278 
C 1440 2598 1760 2746 2035 2746 
C 2656 2746 2912 2285 2912 1600 
C 2912 832 2509 365 1952 365 
z
" transform="scale(0.015625)"/>
       <path id="SourceCodePro-Regular-6f" d="M 1920 -77 
C 2739 -77 3456 518 3456 1549 
C 3456 2592 2739 3187 1920 3187 
C 1101 3187 384 2592 384 1549 
C 384 518 1101 -77 1920 -77 
z
M 1920 358 
C 1325 358 928 838 928 1549 
C 928 2266 1325 2752 1920 2752 
C 2515 2752 2912 2266 2912 1549 
C 2912 838 2515 358 1920 358 
z
" transform="scale(0.015625)"/>
       <path id="SourceCodePro-Regular-67" d="M 1894 -1434 
C 2950 -1434 3622 -928 3622 -346 
C 3622 179 3238 384 2438 384 
L 1741 384 
C 1331 384 1094 499 1094 742 
C 1094 890 1184 1005 1338 1101 
C 1510 1024 1702 986 1862 986 
C 2534 986 3066 1389 3066 2054 
C 3066 2304 2944 2534 2803 2682 
L 3610 2682 
L 3610 3110 
L 2323 3110 
C 2189 3162 2042 3187 1862 3187 
C 1203 3187 640 2752 640 2074 
C 640 1702 813 1427 1024 1267 
L 1024 1242 
C 787 1082 653 858 653 659 
C 653 397 806 237 973 147 
L 973 122 
C 640 -70 461 -320 461 -570 
C 461 -1120 986 -1434 1894 -1434 
z
M 1862 1338 
C 1472 1338 1146 1626 1146 2074 
C 1146 2509 1472 2803 1862 2803 
C 2259 2803 2579 2509 2579 2074 
C 2579 1626 2259 1338 1862 1338 
z
M 1933 -1050 
C 1267 -1050 915 -845 915 -518 
C 915 -339 1018 -160 1312 0 
C 1446 -38 1606 -51 1786 -51 
L 2394 -51 
C 2867 -51 3104 -134 3104 -429 
C 3104 -749 2656 -1050 1933 -1050 
z
" transform="scale(0.015625)"/>
       <path id="SourceCodePro-Regular-2d" d="M 544 1914 
L 3296 1914 
L 3296 2310 
L 544 2310 
L 544 1914 
z
" transform="scale(0.015625)"/>
       <path id="SourceCodePro-Regular-73" d="M 1984 -77 
C 2874 -77 3366 346 3366 851 
C 3366 1325 3117 1587 2080 1811 
C 1446 1946 1178 2061 1178 2330 
C 1178 2566 1363 2778 1894 2778 
C 2291 2778 2650 2650 2938 2451 
L 3194 2790 
C 2886 3002 2413 3187 1939 3187 
C 1088 3187 646 2803 646 2304 
C 646 1837 1056 1562 1862 1395 
C 2707 1222 2835 1056 2835 819 
C 2835 557 2573 333 2048 333 
C 1472 333 1056 499 698 755 
L 454 410 
C 832 147 1376 -77 1984 -77 
z
" transform="scale(0.015625)"/>
       <path id="SourceCodePro-Regular-74" d="M 2522 -77 
C 2912 -77 3213 6 3494 109 
L 3379 493 
C 3155 410 2925 352 2630 352 
C 2029 352 1843 646 1843 1203 
L 1843 2682 
L 3373 2682 
L 3373 3110 
L 1843 3110 
L 1843 4109 
L 1408 4109 
L 1338 3110 
L 442 3078 
L 442 2682 
L 1318 2682 
L 1318 1210 
C 1318 442 1613 -77 2522 -77 
z
" transform="scale(0.015625)"/>
       <path id="SourceCodePro-Regular-61" d="M 1574 -77 
C 2016 -77 2458 154 2803 422 
L 2822 422 
L 2867 0 
L 3296 0 
L 3296 1907 
C 3296 2682 2886 3187 2035 3187 
C 1491 3187 966 2944 653 2739 
L 858 2381 
C 1146 2560 1542 2752 1946 2752 
C 2547 2752 2758 2394 2771 1971 
C 1165 1843 518 1504 518 806 
C 518 250 992 -77 1574 -77 
z
M 1715 346 
C 1357 346 1030 493 1030 845 
C 1030 1254 1440 1517 2771 1626 
L 2771 806 
C 2419 512 2067 346 1715 346 
z
" transform="scale(0.015625)"/>
       <path id="SourceCodePro-Regular-69" d="M 2022 0 
L 2547 0 
L 2547 3110 
L 576 3110 
L 576 2682 
L 2022 2682 
L 2022 0 
z
M 2227 3763 
C 2464 3763 2650 3923 2650 4173 
C 2650 4416 2464 4582 2227 4582 
C 1990 4582 1805 4416 1805 4173 
C 1805 3923 1990 3763 2227 3763 
z
" transform="scale(0.015625)"/>
       <path id="SourceCodePro-Regular-63" d="M 2214 -77 
C 2675 -77 3104 102 3450 410 
L 3213 749 
C 2957 531 2637 358 2253 358 
C 1536 358 1056 838 1056 1549 
C 1056 2266 1549 2752 2266 2752 
C 2592 2752 2861 2618 3117 2394 
L 3379 2733 
C 3123 2982 2752 3187 2246 3187 
C 1306 3187 512 2592 512 1549 
C 512 518 1242 -77 2214 -77 
z
" transform="scale(0.015625)"/>
       <path id="SourceCodePro-Regular-20" transform="scale(0.015625)"/>
       <path id="SourceCodePro-Regular-66" d="M 1549 0 
L 2067 0 
L 2067 2682 
L 3373 2682 
L 3373 3110 
L 2067 3110 
L 2067 3392 
C 2067 3898 2298 4205 2854 4205 
C 3123 4205 3322 4173 3578 4058 
L 3699 4454 
C 3405 4576 3110 4634 2803 4634 
C 1946 4634 1549 4134 1549 3373 
L 1549 3110 
L 659 3078 
L 659 2682 
L 1549 2682 
L 1549 0 
z
" transform="scale(0.015625)"/>
      </defs>
      <use xlink:href="#SourceCodePro-Regular-2e"/>
      <use xlink:href="#SourceCodePro-Regular-2f" x="59.999985"/>
      <use xlink:href="#SourceCodePro-Regular-70" x="119.999969"/>
      <use xlink:href="#SourceCodePro-Regular-6f" x="179.999954"/>
      <use xlink:href="#SourceCodePro-Regular-67" x="239.999939"/>
      <use xlink:href="#SourceCodePro-Regular-2d" x="299.999924"/>
      <use xlink:href="#SourceCodePro-Regular-73" x="359.999908"/>
      <use xlink:href="#SourceCodePro-Regular-74" x="419.999893"/>
      <use xlink:href="#SourceCodePro-Regular-61" x="479.999878"/>
      <use xlink:href="#SourceCodePro-Regular-74" x="539.999863"/>
      <use xlink:href="#SourceCodePro-Regular-69" x="599.999847"/>
      <use xlink:href="#SourceCodePro-Regular-63" x="659.999832"/>
      <use xlink:href="#SourceCodePro-Regular-20" x="719.999817"/>
      <use xlink:href="#SourceCodePro-Regular-66" x="779.999802"/>
      <use xlink:href="#SourceCodePro-Regular-6f" x="839.999786"/>
      <use xlink:href="#SourceCodePro-Regular-6f" x="899.999771"/>
     </g>
    </g>
    <g id="patch_281">
     <path d="M 281.72 72.193875 
L 301.72 72.193875 
L 301.72 65.193875 
L 281.72 65.193875 
z
" style="fill: #ff7f0e"/>
    </g>
    <g id="text_19">
     <!-- ./pog foo -->
     <g transform="translate(309.72 72.193875)scale(0.1 -0.1)">
      <use xlink:href="#SourceCodePro-Regular-2e"/>
      <use xlink:href="#SourceCodePro-Regular-2f" x="59.999985"/>
      <use xlink:href="#SourceCodePro-Regular-70" x="119.999969"/>
      <use xlink:href="#SourceCodePro-Regular-6f" x="179.999954"/>
      <use xlink:href="#SourceCodePro-Regular-67" x="239.999939"/>
      <use xlink:href="#SourceCodePro-Regular-20" x="299.999924"/>
      <use xlink:href="#SourceCodePro-Regular-66" x="359.999908"/>
      <use xlink:href="#SourceCodePro-Regular-6f" x="419.999893"/>
      <use xlink:href="#SourceCodePro-Regular-6f" x="479.999878"/>
     </g>
    </g>
    <g id="patch_282">
     <path d="M 281.72 86.554813 
L 301.72 86.554813 
L 301.72 79.554813 
L 281.72 79.554813 
z
" style="fill: #2ca02c"/>
    </g>
    <g id="text_20">
     <!-- ./dum foo -->
     <g transform="translate(309.72 86.554813)scale(0.1 -0.1)">
      <defs>
       <path id="SourceCodePro-Regular-64" d="M 1734 -77 
C 2118 -77 2490 147 2746 410 
L 2765 410 
L 2810 0 
L 3245 0 
L 3245 4557 
L 2720 4557 
L 2720 3360 
L 2746 2784 
L 2726 2784 
C 2458 3040 2170 3187 1798 3187 
C 1062 3187 384 2560 384 1549 
C 384 512 922 -77 1734 -77 
z
M 1843 365 
C 1267 365 928 813 928 1555 
C 928 2266 1363 2746 1901 2746 
C 2170 2746 2438 2643 2720 2381 
L 2720 832 
C 2445 525 2150 365 1843 365 
z
" transform="scale(0.015625)"/>
       <path id="SourceCodePro-Regular-75" d="M 1574 -77 
C 2054 -77 2419 179 2733 544 
L 2758 544 
L 2803 0 
L 3232 0 
L 3232 3110 
L 2707 3110 
L 2707 954 
C 2362 550 2099 378 1741 378 
C 1222 378 1024 659 1024 1248 
L 1024 3110 
L 493 3110 
L 493 1178 
C 493 358 832 -77 1574 -77 
z
" transform="scale(0.015625)"/>
       <path id="SourceCodePro-Regular-6d" d="M 371 0 
L 896 0 
L 896 2253 
C 1050 2573 1190 2733 1408 2733 
C 1638 2733 1728 2547 1728 2189 
L 1728 0 
L 2214 0 
L 2214 2253 
C 2381 2573 2496 2733 2714 2733 
C 2944 2733 3046 2547 3046 2189 
L 3046 0 
L 3571 0 
L 3571 2227 
C 3571 2848 3315 3187 2880 3187 
C 2522 3187 2330 2982 2150 2650 
C 2061 3008 1869 3187 1562 3187 
C 1203 3187 1011 2989 851 2701 
L 838 2701 
L 794 3110 
L 371 3110 
L 371 0 
z
" transform="scale(0.015625)"/>
      </defs>
      <use xlink:href="#SourceCodePro-Regular-2e"/>
      <use xlink:href="#SourceCodePro-Regular-2f" x="59.999985"/>
      <use xlink:href="#SourceCodePro-Regular-64" x="119.999969"/>
      <use xlink:href="#SourceCodePro-Regular-75" x="179.999954"/>
      <use xlink:href="#SourceCodePro-Regular-6d" x="239.999939"/>
      <use xlink:href="#SourceCodePro-Regular-20" x="299.999924"/>
      <use xlink:href="#SourceCodePro-Regular-66" x="359.999908"/>
      <use xlink:href="#SourceCodePro-Regular-6f" x="419.999893"/>
      <use xlink:href="#SourceCodePro-Regular-6f" x="479.999878"/>
     </g>
    </g>
    <g id="patch_283">
     <path d="M 281.72 100.845438 
L 301.72 100.845438 
L 301.72 93.845438 
L 281.72 93.845438 
z
" style="fill: #d62728"/>
    </g>
    <g id="text_21">
     <!-- npm run foo -->
     <g transform="translate(309.72 100.845438)scale(0.1 -0.1)">
      <defs>
       <path id="SourceCodePro-Regular-6e" d="M 595 0 
L 1120 0 
L 1120 2170 
C 1485 2547 1734 2733 2106 2733 
C 2618 2733 2822 2451 2822 1862 
L 2822 0 
L 3347 0 
L 3347 1933 
C 3347 2752 3008 3187 2272 3187 
C 1786 3187 1427 2925 1101 2579 
L 1075 2579 
L 1030 3110 
L 595 3110 
L 595 0 
z
" transform="scale(0.015625)"/>
       <path id="SourceCodePro-Regular-72" d="M 934 0 
L 1459 0 
L 1459 1824 
C 1830 2470 2272 2714 2739 2714 
C 2982 2714 3098 2682 3315 2605 
L 3437 3059 
C 3245 3155 3053 3187 2822 3187 
C 2246 3187 1760 2874 1434 2374 
L 1414 2374 
L 1370 3110 
L 934 3110 
L 934 0 
z
" transform="scale(0.015625)"/>
      </defs>
      <use xlink:href="#SourceCodePro-Regular-6e"/>
      <use xlink:href="#SourceCodePro-Regular-70" x="59.999985"/>
      <use xlink:href="#SourceCodePro-Regular-6d" x="119.999969"/>
      <use xlink:href="#SourceCodePro-Regular-20" x="179.999954"/>
      <use xlink:href="#SourceCodePro-Regular-72" x="239.999939"/>
      <use xlink:href="#SourceCodePro-Regular-75" x="299.999924"/>
      <use xlink:href="#SourceCodePro-Regular-6e" x="359.999908"/>
      <use xlink:href="#SourceCodePro-Regular-20" x="419.999893"/>
      <use xlink:href="#SourceCodePro-Regular-66" x="479.999878"/>
      <use xlink:href="#SourceCodePro-Regular-6f" x="539.999863"/>
      <use xlink:href="#SourceCodePro-Regular-6f" x="599.999847"/>
     </g>
    </g>
   </g>
  </g>
 </g>
 <defs>
  <clipPath id="p969689ebda">
   <rect x="57.6" y="41.472" width="357.12" height="266.112"/>
  </clipPath>
 </defs>
</svg>
