<svg xmlns="http://www.w3.org/2000/svg" width="276.5" height="512"><path fill="#f6f657" d="m99.3 140.4 101.9 3.1c61.5 21.9 73.1 234.8 38.2 297.4 0 0-47.3 57.8-80.6-38.2-30.5 56.7-10.6 78.2-82.5 67.4l-18.8-69.8c-64.2 15.6-68.8-199.5-4.1-176z"/><path fill="#c38822" d="M81.8 461.2c-4.9-4-7.7-20.9-10.5-86.2-4.8-109.7-1.2-168.6 14.2-203.4 4.3-9.9 7.7-9.2 5.3 1-2.8 11.9-6 80.2-4.6 101.6 2.2 36.7 8 55 21.7 70 15 16.2 35.2 23.3 66.5 23.2a64 64 0 0 0 28.6-4.3c20.8-8.6 27.6-16.7 37.2-44.4a96.8 96.8 0 0 1 6.5-16.2c1.8-1.7 0 28.8-3.8 60.3-3.1 26.6-11 67.2-14.5 74.9-4.1 9-24.2 13-37.7 7.3-6.8-2.9-8.8-7.5-11.2-26.2l-1.2-9.4 10.9-3.1a57 57 0 0 0 18.2-9.5l7.3-6.3-12 1.5a373 373 0 0 1-37.7 1.3c-14.1-.1-26.3.3-27 1-.8.8-1.8 14.8-2.4 31-1 32.5-1.2 33.2-12.8 37-10.4 3.5-36.3 2.8-41-1.1zM16 260.8c2.6-4.2 15.3-7.7 27.6-7.7h10l3.9 141.7-40.3-2.2s-8-99.2-1.1-131.8z"/><path fill="#221706" d="M79 477.9c-13.4-4.7-16-9.3-19.2-34.3-4.7-36.7-3.2-32.9-13.3-34.1-18.3-2.4-21-3.1-26.5-7.8-12.2-10.3-18-30-19.7-66.9-1.9-39.1 6.2-102.7 13.9-109.7 4.8-4.4 16.4-8.8 29.9-11.3l12-2.2 4.2-17.2c13.3-54 37.2-71.9 91.8-68.7 33 1.9 55.6 10.3 73 27.3 8.7 8.5 19.5 20.5 18.1 21.7-.4.4-6.6.2-13.8-.5a44.4 44.4 0 0 1-25.5-10.4 91.2 91.2 0 0 0-92.5-12.5c-23.8 11-29.7 23-37.4 76.3-4.2 29-4.8 77-1.7 147.4 2.8 65.3 4.6 82.2 9.5 86.2 4.7 3.9 30.6 4.6 41 1.1 11.6-3.8 11.8-4.5 12.8-37 .6-16.2 1.6-30.2 2.3-31 .8-.7 13-1.1 27-1 14.2.1 31.2-.5 37.8-1.3l12-1.5-7.3 6.3a54.9 54.9 0 0 1-18.2 9.5l-10.9 3.1 1.2 9.4c2.4 18.7 4.4 23.3 11.2 26.2 13.5 5.6 33.6 1.7 37.7-7.3 3.5-7.6 11.4-48.2 14.8-75.8 3.4-27.7 4.3-62.1 2-75.6-1.3-7.6-2.4-10.9 6-15 4.6-2.2 8.9-4 9.5-4 .6 0 1.8 25.2 1.2 52.2-.8 44.7-1.4 51.6-6.7 79.7-7.6 40-8.5 43.4-12.7 50.7-5.4 9.2-14 14-27.2 15.5-12.3 1.3-34.7-1.5-40.4-5-5.8-3.7-9.2-11.6-11.3-26-2.9-20-3.5-22.2-6.3-22.2-1.8 0-2.8 5.4-3.7 21-1.7 27.4-3.3 33-11.1 38a83.2 83.2 0 0 1-63.6 6.7zm-31-87.3 6.5-1-.5-77.8-.6-77.6-11-.6s-11.8 0-15.6 3.9c-7.2 7.2-9 24.5-8.2 77.3.9 51.1 2.8 61.8 12.6 71.6 5.7 5.6 6.6 5.9 16.8 4.2z"/><path fill="#95cadc" d="M131.7 188.5h126.7v64.1H131.7z"/><path fill="#4a646d" d="m137.3 268.6-10-59.7s10.3-5.5 15.5-10c7.2-6.4 9.7-6.4 6.3-.1a31.1 31.1 0 0 0-2.3 11.5c-.2 19.3 30 33 68.6 31 29.7-1.6 37.6-5.2 41.3-20.6 1.1-4.8 1.5-3.3 1.6 7 .3 21-10.7 44-10.7 44z"/><path fill="#161e21" d="M155.9 282.2c-28.8-7.5-38.2-19.8-39.8-52.2-1.1-22.1 1.9-31.9 13.4-43.4 11.2-11.2 22.5-14.4 55.4-15.8 56.4-2.4 74.4 3.6 86.2 28.6a49 49 0 0 1 5.4 27.3c-.1 40.8-21.8 55.8-82.3 57.2-19.7.5-32 0-38.3-1.7zM225 263c15.7-4.2 24.9-9.4 29.3-16.3 5-8 4.3-33-1.3-42.7-6.6-11.4-14.3-13.6-49.9-14.5-41.9-1-49.5.1-59 8.3-6.3 5.3-8 8.3-9.8 17A50.7 50.7 0 0 0 140 251c4.5 6.4 17.1 12.8 29.4 15 12.3 2.3 42.1.7 55.6-3z"/><path fill="#fff" d="M218.3 214.2c-17.6-3.7-24.1-8.6-21.3-16 3.1-8 17.8-9.7 37.5-4.2 14.4 4 21.5 11 18.8 18.4-2.2 6-12.4 6.6-35 1.8z"/><path fill="#409f00" d="M42 47.2S66.6 19 144.6 63.1C167 10.6 214 8.9 214 8.9 252 72.3 172.4 114 172.4 114c-11.3 39.2-40 26.5-44.3 1.6 0 0-84-12.6-86-68.4z"/><path fill="#007601" d="M55.2 56.9c0-2.6 5.3-4 14.2-5.8 13.2-2.7 14.3-2.2 20 8.8 4.3 8.3 6.3 10.1 11 10.2 3 0 3-.6.4-8-1.5-4.4-2-11.8-2-11.8S137.2 64 158.4 68l6.8 6.7c4 4 5.7 4.5 7.5 2.7 3.8-3.8 2.6-9.2-3.4-15.3-5.7-5.6-7.5-6.8-4.5-12.8 5-9.6 16.7-17.2 27.9-21.5 13.2-5 15.8-4.9 19.6 1 2.8 4.2 2.8 4.8.3 5l-4.8.5c-2.7.3-7.6 7.4-7.7 11-.1 5.2 14.8.7 16-4.7 10.6 41.8-27.5 70.5-61.4 95.2 0 0-98.9-42.6-99.5-79z"/><path fill="#00442e" d="M151.8 124.2c-.9-3-.3-5.6-1.6-11-1-3-2.8-4-6.2-3.7-2.9.3-4.7-.5-4.7-2 0-1.4-1.5-3.4-3.4-4.5-2.7-1.7-2.9-2.3-.7-3.7 2-1.4.6-3-5.8-6.7a60.7 60.7 0 0 0-37.4-11c-12.9 0-14.5.5-13.5 3.3.7 1.7-1.2.6-4-2.4L69 76.9l7-1 7-1-10.5-5.2c-7.4-3.6-10.3-4.3-9.5-2.4.5 1.6.2 2.8-.8 2.8s-1.9-1.6-1.9-3.7c0-2-.9-4.3-2-5-4.2-2.5-1.9-8.1 3.8-9 3.1-.4 5.5 0 5.3 1-.8 4 39.3 22.9 42.3 20 .5-.6-.1-4.1-1.5-7.9-4.8-13.3 3.1-11 9.1 2.6 3.5 8 5.8 10.2 16 15.6a63.7 63.7 0 0 1 15.5 11c4.1 5.2 7.6 4.3 7.9-2 .2-4 .4-3.8 2.2.9 2 4.9 2.5 4.3 12.3-15.2 11.2-22 11.8-24.8 7.4-33.4-2.3-4.3-2.5-6.6-1-9.5l3-2c-.7 1 .3 4.2 2.1 7l3.3 5 3.2-6.4c1.8-3.6 2.5-7.4 1.6-8.6-1.7-2.2 11.6-7.6 15.5-6.3 1.4.5-1.6 8-7.5 19.5a140.6 140.6 0 0 0-9 18.7c.5 0 4.7-1.7 9.3-3.8 10.5-4.7 15.1-4.9 15-.5 0 2.2-5.3 6.3-15.3 11.9-12 6.6-16.7 10.5-21.2 17.5-6.5 10-7 12.4-2.7 10.8 1.6-.7 2.5-.4 2 .5 0 0-16.3 21.4-18.1 32.7 0 0-5-.8-7-7.3z"/><path fill="#002000" d="M127.4 140.8c-.7-1.7-1.2-5.4-1.2-8.2 0-8.4-2.6-10.2-18.3-13.1-8.2-1.6-20.3-5-26.8-7.6-10-4-13.7-7-23.3-18.4C36.4 67.8 35.2 65.8 35.2 56c0-8 .8-9.7 7.7-16.1 11-10.3 29.3-13.9 48.5-9.4a134 134 0 0 1 42.8 20.7c3.8 3.3 7.4 6 8 6 .4 0 1.8-3.7 3-8.4C148.7 35 166.5 15.2 183 6.7c9.3-4.7 29.4-8.3 33.3-6 4.9 3.1 14.9 24.3 17.7 37.7a39.4 39.4 0 0 1-.5 23.7 88.7 88.7 0 0 1-44.7 56.1c-9.4 4.6-11 6.4-14.8 15.4l-4.2 10.2h-20.6c-17 0-20.9-.5-21.8-3zm25.3-11.6c3.3-1 4.3-2.6 4.3-7.2 0-10.4 2-14.2 9.3-17.7 22.4-11 26.8-13.5 32.3-18.6 14.6-13.7 21.7-38.4 15-52.4-1.8-4-4.6-7.7-6.2-8.3-5.3-2-25.6 7-33 14.7-9 9.2-13 19.4-16 41.5-1.4 9.4-3.5 17.5-4.7 17.9-1.3.4-3.2-2.8-4.4-7.3C142.9 68 98.2 46 68 52c-8.4 1.7-11 3-11 5.5A80.8 80.8 0 0 0 92.6 96a94.9 94.9 0 0 0 23.6 4.5c8.7.7 17.2 1.8 18.9 2.4 4 1.6 6.5 8.8 6.5 19 0 9 1.3 10 11 7.4z"/><path fill="#f6f657" d="M138.8 330.5c30.2 22.3 21.4 142.8 21.4 142.8-23.1 57.6-49.4-.4-49.4-.4-21.7 61.3-54.3 27-63.8-2.8-30.8-.1-37.7-95 .7-96 20-55.4 53.7-52.2 91.1-43.6z"/><path fill="#c38822" d="M27 406.9c1.7-4 5.6-5.7 10.2-5.7H45l-.9 61H27.3zm29.7 93.4c-1-18 .4-81.3.7-85.4l.7-7.4 2.4 5.6A73 73 0 0 0 80.1 441c9.3 8.7 11.4 9.8 21.5 11a69.6 69.6 0 0 0 40-5.6 183 183 0 0 0 12.6-7.7l-.7 57.5-29.2-.7-13.4-25.8-11.1 31.8z"/><path fill="#221706" d="M53.6 506.8c-5-4.6-10-18.3-10-27.3 0-1.6-2-2.6-5.4-2.6-8 0-17.1-6-21.4-14.1-5.5-10.3-5.6-58-.2-72.3 4.8-13 12.5-20.5 22.9-22 8-1.2 8.2-1.5 11.3-11.6 9.1-29.4 22.2-39 53.1-39 19.7 0 36.3 4.8 42.7 12.3 2.2 2.7 3.8 5 3.5 5.3-.5.4-22.7-1.8-42.2-4a45.8 45.8 0 0 0-29.2 6.7c-14.4 10.6-20.3 39.8-20 100 .2 45.4 1.7 55.5 8.7 59a36.6 36.6 0 0 0 21.2.4c4.6-2.7 6.6-11.8 5.3-23.7L92.6 462h11c6.2 0 15.7-1 21.3-2a36 36 0 0 1 11-1.3c.5.5-1.5 4-4.3 8-4.5 6.1-5 8-3.5 14.6 1.8 7.8 5 9.7 13.5 7.7 6.9-1.6 11.6-19.4 11.7-44l-2.7-29.1 6.6-3c3.6-1.6 7.1-2.9 7.8-2.9.7 0 3.5 22.1 2.8 37.6-1.9 44-7 55.3-26.7 57.8-17.8 2.3-28.1-4.9-28.1-19.4 0-3-1-5.8-2-6.5-1.2-.7-2 1.8-2 6.3 0 9-2.8 16.4-8.4 22-3.8 3.7-6 4.1-22.8 4.1-17.7 0-18.9-.2-24.2-5.2zm-10-80.3c0-19.6.6-37.5 1.3-39.8.8-2.9.3-4.1-1.6-4.1-9.9 0-15.5 15.8-15.6 44-.1 25.8 3.4 34.5 14.5 35.4.8 0 1.5-16 1.5-35.5z"/><g transform="translate(4.2 1030) scale(1.31106)"><rect width="51.2" height="40.2" x="68.9" y="-525.1" fill="#95cadc" ry="9.9"/><path fill="#4a646d" d="M78.7-471.7c-8-4.8-11.2-11-12-22.6a31 31 0 0 1 2-16.3l2.6-5.9 1 5.9c1.7 9.4 3.7 13 10 17.4 11.7 8 25.6 8.3 32.8.5l4-4.3v7.4c0 8.5-4.6 15.4-12.6 18.7-7.2 3-22.2 2.6-27.8-.8z"/><path fill="#161e21" d="M82.6-459.8c-8.2-2.2-15.9-7-18.8-12a56.7 56.7 0 0 1-1.7-47c4.9-10.7 11-13.8 29.5-14.9 12.5-.8 13.7-.6 20 3.2 11 6.6 16.9 19.5 16.9 37.5 0 11.1-4.8 23-11.4 28.4-8 6.5-21.2 8.4-34.5 4.8zm26.2-13.7c7.4-6 8.8-9.6 9-22.5.2-19-4.1-25.4-18.5-27.7-22.6-3.5-32 5.2-30.7 28.6.4 8.8 1.1 11.1 4.7 16 6.1 8.3 9.2 9.6 21.3 9.1 8-.3 11.3-1.2 14.2-3.5z"/><path fill="#fff" d="M106.5-510c-.3-1-4-2.4-8.3-3.1-6.1-1-7.8-2-7.8-4.7 0-7.2 19.7-4.2 23 3.5 2 5.6-5 8-6.9 4.3z"/></g></svg>